<svg xmlns="http://www.w3.org/2000/svg" width="25" height="25" viewBox="0 0 25 25">
    <g fill="none" fill-rule="evenodd">
        <g fill="#FFF" fill-rule="nonzero">
            <g>
                <g>
                    <g>
                        <path d="M12.05 0C5.406 0 0 5.375 0 11.982c0 6.607 5.405 11.982 12.05 11.982 6.646 0 12.051-5.375 12.051-11.982C24.101 5.376 18.696 0 12.051 0zm0 22.108c-5.614 0-10.183-4.542-10.183-10.126C1.867 6.4 6.436 1.856 12.05 1.856c5.615 0 10.183 4.543 10.183 10.126 0 5.584-4.569 10.126-10.183 10.126z" transform="translate(-597 -5396) translate(199 4877) translate(59 501) rotate(90 172.595 191.044)"/>
                        <path d="M17.38 13.263l-4.667-4.64c-.364-.36-.952-.36-1.316 0l-4.667 4.64c-.3.347-.3.86 0 1.207.335.39.925.435 1.316.102l4.005-3.982 4.013 3.982c.364.36.952.36 1.316 0 .363-.362.363-.947 0-1.309z" transform="translate(-597 -5396) translate(199 4877) translate(59 501) rotate(90 172.595 191.044)"/>
                    </g>
                </g>
            </g>
        </g>
    </g>
</svg>
