<?xml version="1.0" encoding="utf-8"?>
<!-- Generator: Adobe Illustrator 23.0.1, SVG Export Plug-In . SVG Version: 6.00 Build 0)  -->
<svg version="1.1" id="Layer_1" xmlns="http://www.w3.org/2000/svg" xmlns:xlink="http://www.w3.org/1999/xlink" x="0px" y="0px"
	 viewBox="0 0 22 22" style="enable-background:new 0 0 22 22;" xml:space="preserve">
<style type="text/css">
	.st0{fill:#1C5FB8;}
</style>
<g>
	<g>
		<g>
			<g>
				<g>
					<g>
						<path class="st0" d="M22,11c0-6.1-4.9-11-11-11S0,4.9,0,11s4.9,11,11,11S22,17.1,22,11z M1.7,11c0-5.1,4.2-9.3,9.3-9.3
							s9.3,4.2,9.3,9.3s-4.2,9.3-9.3,9.3S1.7,16.1,1.7,11z"/>
						<path class="st0" d="M9.8,15.9l4.3-4.3c0.3-0.3,0.3-0.9,0-1.2L9.8,6.1C9.5,5.9,9,5.9,8.7,6.1C8.4,6.4,8.3,7,8.6,7.3l3.7,3.7
							l-3.7,3.7c-0.3,0.3-0.3,0.9,0,1.2C9,16.2,9.5,16.2,9.8,15.9z"/>
					</g>
				</g>
			</g>
		</g>
	</g>
</g>
</svg>
