<svg xmlns="http://www.w3.org/2000/svg" width="203" height="32" viewBox="0 0 203 32">
    <g fill="none" fill-rule="evenodd">
        <g fill="#115569" fill-rule="nonzero">
            <g>
                <path d="M16.096 9.032L14.821.192l2.526.728-1.25 8.112zM11.445 1.5l-2.614.296 4.56 7.676L11.445 1.5zM6.214 4.3L3.912 5.572l7.145 5.344L6.214 4.3zM2.45 8.884L.8 10.94l8.647 2.204-6.997-4.26zm-1.727 5.68L0 17.092l8.831-1.276-8.108-1.252zm.58 5.908l.295 2.616 7.673-4.564-7.968 1.948zM4.1 25.708L5.367 28l5.342-7.14L4.1 25.708zm4.583 3.768l2.054 1.644 2.202-8.656-4.256 7.012zm5.67 1.724l2.526.728-1.274-8.84-1.251 8.112zm5.903-.58l2.613-.292-4.559-7.676 1.946 7.968zm5.23-2.8l2.303-1.272-7.15-5.348 4.848 6.62zM27.606 6.4l-1.27-2.304-5.344 7.172L27.605 6.4zM23.02 2.632L20.967.988 18.781 9.66l4.24-7.028zM44.145 24.224c-4.872 0-7.965-3.16-7.965-7.916S39.305 8.4 44.176 8.4c4.176 0 6.854 2.28 7.453 5.952h-4.396c-.275-1.483-1.59-2.543-3.096-2.496-2.226 0-3.637 1.804-3.637 4.452 0 2.648 1.41 4.452 3.637 4.452 1.552.072 2.906-1.048 3.128-2.588h4.356c-.56 3.732-3.269 6.052-7.476 6.052zM68.469 8.576V24.04h-3.361l-.8-1.864c-.994 1.2-2.345 2.048-4.539 2.048-3.197 0-6.134-1.628-6.134-7.256v-8.4h4.24v7.892c0 2.736.9 4.24 3.005 4.24 2.106 0 3.337-1.652 3.337-4.512v-7.6l4.252-.012zM95.618 15.556v8.516h-4.24v-8.668c0-2.316-.843-3.52-2.677-3.52-1.835 0-3.065 1.356-3.065 3.716v8.472h-4.24v-8.668c0-2.316-.84-3.52-2.706-3.52s-3.037 1.416-3.037 3.732v8.456h-4.235V8.576h3.308l.8 1.924c.959-1.2 2.281-2.076 4.567-2.108 1.894 0 3.637.664 4.6 2.62 1.114-1.656 2.977-2.62 5.322-2.62 2.925.008 5.603 1.628 5.603 7.164zM114.347 16.276c0 4.8-3.005 7.976-7.193 7.948-1.862.066-3.637-.79-4.747-2.288l-.823 2.104h-3.28V2.976h4.239v7.552c1.138-1.391 2.856-2.177 4.651-2.128 4.148 0 7.153 2.972 7.153 7.876zm-4.295.032c0-2.648-1.507-4.452-3.82-4.452-2.314 0-3.757 1.804-3.757 4.4s1.443 4.484 3.756 4.484c2.314 0 3.82-1.784 3.82-4.432zM123.878 8.4c4.687 0 7.904 2.892 7.964 7.436.004.484-.036.967-.12 1.444h-11.209v.12c.18 2.224 1.443 3.6 3.64 3.6 1.711 0 2.914-.756 3.277-2.2h4.176c-.48 3.012-3.097 5.42-7.153 5.42-5.23 0-8.36-3.1-8.36-7.888s3.13-7.932 7.785-7.932zm3.728 6.112c-.303-1.896-1.626-2.952-3.548-2.952-1.834 0-3.197 1.116-3.457 2.952h7.005zM143.575 8.576v3.852h-1.683c-2.525 0-3.488 1.684-3.488 4.032v7.58h-4.24V8.576h3.448l.8 2.316c.843-1.384 2.046-2.316 4.447-2.316h.716zM149.709 2.976L149.709 24.04 145.457 24.04 145.457 2.976zM167.867 20.46v3.58h-2.162c-2.198 0-2.89-1.052-2.857-2.528-1.083 1.716-2.646 2.712-5.051 2.712-3.337 0-5.743-1.6-5.743-4.544 0-3.284 2.466-5.148 7.093-5.148h3.07v-.752c0-1.384-1.116-2.288-2.886-2.288-1.566 0-2.645.752-2.825 1.896h-4.092c.304-3.2 3.009-4.996 7.125-4.996 4.332 0 6.857 1.928 6.857 5.628v5.448c0 .8.36.992.991.992h.48zm-5.65-3.1h-3.098c-1.742 0-2.797.724-2.797 2 0 1.084.875 1.776 2.286 1.776 2.226 0 3.576-1.384 3.596-3.488l.012-.288zM184.582 15.644v8.4h-4.236v-8.156c0-2.62-.99-4-3.129-4-2.137 0-3.456 1.564-3.456 4.244v7.908h-4.24V8.576h3.3l.8 1.924c.991-1.2 2.398-2.108 4.795-2.108 3.133.008 6.166 1.628 6.166 7.252zM202.716 2.976V24.04h-3.312l-.8-2.136c-1.11 1.503-2.884 2.368-4.751 2.32-4.148.028-7.193-3.04-7.193-7.948 0-4.8 3.037-7.884 7.157-7.884 2.134 0 3.668.844 4.66 2.108V2.976h4.24zm-4.18 13.36c0-2.648-1.442-4.48-3.756-4.48s-3.792 1.804-3.792 4.452c0 2.648 1.474 4.452 3.792 4.452 2.318 0 3.756-1.804 3.756-4.424z" transform="translate(-80 -28) translate(80 28)"/>
            </g>
        </g>
    </g>
</svg>
