<svg xmlns="http://www.w3.org/2000/svg" width="70" height="80" viewBox="0 0 70 80">
    <g fill="none" fill-rule="evenodd">
        <g fill="#115569" fill-rule="nonzero">
            <g>
                <path d="M40.28 22.58L37.09.48l6.32 1.82-3.13 20.28zM28.64 3.75l-6.54.74 11.41 19.19-4.87-19.93zm-13.09 7l-5.76 3.18 17.88 13.36-12.12-16.54zM6.13 22.21L2 27.35l21.64 5.51L6.13 22.21zm-4.32 14.2L0 42.73l22.1-3.19-20.29-3.13zm1.45 14.77L4 57.72l19.2-11.41-19.94 4.87zm7 13.09L13.43 70 26.8 52.15 10.26 64.27zm11.47 9.42l5.14 4.11 5.51-21.64-10.65 17.53zM35.92 78l6.32 1.82-3.19-22.1L35.92 78zm14.77-1.45l6.54-.73-11.41-19.19 4.87 19.92zm13.09-7l5.76-3.18L51.65 53l12.13 16.55zM69.08 16l-3.18-5.76-13.37 17.93L69.08 16zM57.61 6.58l-5.14-4.11L47 24.15 57.61 6.58z" transform="translate(-81 -7741) translate(81 7741)"/>
            </g>
        </g>
    </g>
</svg>
