<?xml version="1.0" encoding="utf-8"?>
<!-- Generator: Adobe Illustrator 23.0.1, SVG Export Plug-In . SVG Version: 6.00 Build 0)  -->
<svg version="1.1" id="Layer_1" xmlns="http://www.w3.org/2000/svg" xmlns:xlink="http://www.w3.org/1999/xlink" x="0px" y="0px"
	 viewBox="0 0 12 12" style="enable-background:new 0 0 12 12;" xml:space="preserve">
<style type="text/css">
	.st0{fill:#1C5FB8;}
</style>
<g>
	<g>
		<g>
			<g>
				<path class="st0" d="M11.5,0H7.1C6.8,0,6.5,0.2,6.5,0.5c0,0.3,0.2,0.5,0.5,0.5h3L4.5,6.7c-0.2,0.2-0.2,0.6,0,0.8
					c0.1,0.1,0.2,0.2,0.4,0.2s0.3-0.1,0.4-0.2l5.6-5.6v3c0,0.3,0.2,0.5,0.5,0.5c0.3,0,0.5-0.2,0.5-0.5V0.5C12,0.2,11.8,0,11.5,0z"/>
				<path class="st0" d="M9.3,5.5C9,5.5,8.7,5.7,8.7,6v4.9H1.1V3.3H6c0.3,0,0.5-0.2,0.5-0.5c0-0.3-0.2-0.5-0.5-0.5H0.5
					C0.2,2.2,0,2.4,0,2.7v8.7C0,11.8,0.2,12,0.5,12h8.7c0.3,0,0.5-0.2,0.5-0.5V6C9.8,5.7,9.6,5.5,9.3,5.5z"/>
			</g>
		</g>
	</g>
</g>
</svg>
