<svg xmlns="http://www.w3.org/2000/svg" xmlns:xlink="http://www.w3.org/1999/xlink" width="104" height="39" viewBox="0 0 104 39">
    <defs>
        <path id="zf53e5n0ra" d="M0 0.079L31.188 0.079 31.188 33.058 0 33.058z"/>
        <path id="3r9gv7xm0c" d="M0.19 0.003L30.734 0.003 30.734 31.134 0.19 31.134z"/>
    </defs>
    <g fill="none" fill-rule="evenodd">
        <g>
            <g>
                <g>
                    <g transform="translate(-1037 -6302) translate(215 6173) translate(822 129) translate(0 5.81)">
                        <mask id="d8hmpzoydb" fill="#fff">
                            <use xlink:href="#zf53e5n0ra"/>
                        </mask>
                        <path fill="#12509A" d="M31.188 19.725c-.358.044-.84.114-1.444.211-.605.095-1.094.233-1.467.411-.448.222-.765.537-.951.944-.188.407-.28.885-.28 1.434v2.444c0 1.778.01 2.977.034 3.6.022.622.047 1.134.078 1.534-1.986.889-3.963 1.57-5.934 2.045-1.97.473-3.902.71-5.798.71-2.03 0-3.985-.378-5.866-1.134-1.88-.755-3.522-1.83-4.926-3.223-1.418-1.41-2.544-3.122-3.38-5.14C.418 21.548 0 19.294 0 16.803c0-2.402.4-4.63 1.198-6.683.798-2.053 1.929-3.836 3.392-5.348C6.008 3.288 7.698 2.136 9.66 1.313 11.623.49 13.724.08 15.963.08c1.791 0 3.35.214 4.68.644 1.328.43 2.5.948 3.515 1.555l.918-1.51h1.79l.202 11.022h-1.836c-.314-1.215-.702-2.41-1.166-3.589-.463-1.178-1.06-2.233-1.793-3.167-.732-.934-1.625-1.678-2.678-2.232-1.053-.557-2.312-.834-3.777-.834-1.599 0-3.025.322-4.28.967-1.256.645-2.347 1.605-3.273 2.88-.912 1.231-1.614 2.765-2.107 4.603-.493 1.84-.74 3.893-.74 6.162 0 2.002.243 3.888.729 5.66.485 1.771 1.192 3.303 2.118 4.593.927 1.319 2.085 2.357 3.475 3.114 1.39.756 2.966 1.133 4.73 1.133 1.315 0 2.514-.2 3.598-.599 1.084-.4 1.85-.822 2.298-1.268.12-.77.183-1.548.191-2.333.007-.785.01-1.452.01-2v-1.733c0-.623-.085-1.175-.257-1.657-.17-.481-.525-.832-1.063-1.055-.493-.221-1.16-.389-2.004-.499-.843-.111-1.503-.183-1.981-.211v-1.623h13.926v1.623z" mask="url(#d8hmpzoydb)"/>
                    </g>
                    <path fill="#12509A" d="M70.712 38.869H54.335v-1.963c.444-.034 1.088-.092 1.932-.165.844-.073 1.423-.184 1.738-.33.556-.223.964-.558 1.223-1.008.26-.452.39-1.037.39-1.754V20.024H41.072v13.32c0 .645.107 1.188.32 1.63.212.442.635.829 1.265 1.159.315.166.876.332 1.682.497.807.167 1.44.258 1.905.276v1.963H29.867v-1.963c.444-.034 1.088-.092 1.932-.165.843-.073 1.422-.184 1.738-.33.556-.223.963-.558 1.223-1.008.26-.452.39-1.037.39-1.754V5.69c0-.59-.121-1.128-.362-1.615-.241-.488-.658-.871-1.251-1.147-.5-.237-1.108-.451-1.822-.635-.713-.184-1.33-.293-1.848-.332V0h16.377v1.961c-.52.02-1.154.101-1.905.25-.75.147-1.312.285-1.682.414-.63.22-1.053.59-1.265 1.104-.213.516-.32 1.078-.32 1.685v12.152h18.546V5.69c0-.59-.121-1.128-.362-1.615-.24-.488-.658-.871-1.251-1.147-.5-.237-1.107-.451-1.821-.635s-1.33-.293-1.85-.332V0h16.378v1.961c-.52.02-1.155.101-1.905.25-.75.147-1.311.285-1.682.414-.63.22-1.052.59-1.265 1.104-.213.516-.32 1.078-.32 1.685v27.93c0 .645.107 1.188.32 1.63.213.442.635.829 1.265 1.159.315.166.876.332 1.682.497.807.167 1.442.258 1.905.276v1.963z" transform="translate(-1037 -6302) translate(215 6173) translate(822 129)"/>
                    <g transform="translate(-1037 -6302) translate(215 6173) translate(822 129) translate(72.965 7.777)">
                        <mask id="fuiu80rh9d" fill="#fff">
                            <use xlink:href="#3r9gv7xm0c"/>
                        </mask>
                        <path fill="#12509A" d="M19.108 7.935c0-1.883-.545-3.377-1.635-4.48-1.091-1.101-2.631-1.653-4.62-1.653H9.096v13.339h2.895c2.034 0 3.728-.646 5.083-1.938 1.356-1.292 2.034-3.05 2.034-5.268zm11.626 23.2h-8.446c-1.87-2.91-3.558-5.426-5.067-7.548-1.51-2.12-3.146-4.307-4.913-6.56H9.096v9.874c0 .512.08.96.243 1.349.162.387.508.684 1.039.888.265.102.73.197 1.392.285.663.088 1.223.14 1.68.154v1.558H.19v-1.558c.352-.03.864-.08 1.536-.154.67-.073 1.137-.168 1.403-.285.441-.19.762-.469.962-.834.198-.365.297-.833.297-1.403V4.39c0-.512-.073-.965-.22-1.36-.148-.396-.494-.695-1.04-.9C2.76 2 2.282 1.88 1.692 1.77 1.102 1.66.601 1.59.19 1.561V.003h14.476c1.326 0 2.57.135 3.735.406 1.164.27 2.217.706 3.16 1.305.914.586 1.643 1.35 2.188 2.293.545.943.818 2.08.818 3.411 0 1.2-.184 2.26-.553 3.182-.368.921-.913 1.719-1.635 2.391-.663.63-1.459 1.174-2.387 1.634-.928.461-1.953.853-3.072 1.174 1.547 2.033 2.832 3.744 3.857 5.134 1.023 1.39 2.28 3.078 3.768 5.068.649.877 1.234 1.525 1.757 1.941.523.418 1.042.757 1.559 1.02.382.19.861.337 1.436.44.575.102 1.054.16 1.437.175v1.558z" mask="url(#fuiu80rh9d)"/>
                    </g>
                </g>
            </g>
        </g>
    </g>
</svg>
