<svg xmlns="http://www.w3.org/2000/svg" width="124" height="39" viewBox="0 0 124 39">
    <g fill="none" fill-rule="evenodd">
        <g fill="#1C7A4C" fill-rule="nonzero">
            <g>
                <g>
                    <path d="M69.704 38.545H53.56v-1.947c.44-.035 1.074-.09 1.904-.162.833-.072 1.403-.182 1.712-.328.546-.221.95-.553 1.207-1.002.257-.448.384-1.026.384-1.738v-13.51h-18.28v13.207c0 .64.103 1.177.315 1.616.208.439.625.822 1.246 1.15.31.166.863.328 1.657.494.794.166 1.419.257 1.878.273v1.947H29.44v-1.947c.44-.035 1.074-.09 1.904-.162.83-.072 1.403-.182 1.712-.328.547-.221.95-.553 1.204-1.002.257-.448.384-1.026.384-1.738V5.642c0-.585-.12-1.118-.355-1.602-.237-.485-.647-.865-1.233-1.138-.495-.237-1.094-.448-1.797-.63-.703-.182-1.311-.293-1.822-.328V0H45.58v1.944c-.511.019-1.136.1-1.878.247-.74.146-1.292.282-1.657.409-.622.218-1.038.585-1.246 1.095-.212.51-.316 1.07-.316 1.67V17.42h18.28V5.642c0-.585-.12-1.118-.357-1.602-.238-.485-.648-.865-1.234-1.138-.491-.237-1.093-.448-1.796-.63-.703-.182-1.312-.293-1.823-.328V0h16.143v1.944c-.51.019-1.139.1-1.878.247-.739.146-1.292.282-1.66.409-.621.218-1.038.585-1.246 1.095-.212.51-.316 1.07-.316 1.67v27.697c0 .64.104 1.177.316 1.616.211.438.625.822 1.246 1.15.313.166.863.328 1.66.494.794.166 1.422.257 1.878.273v1.95h.007zM91.701 23.943c.664.734 1.153 1.537 1.468 2.411.316.875.475 1.892.475 3.052 0 2.763-1.022 5.04-3.069 6.831-2.044 1.794-4.582 2.688-7.612 2.688-1.4 0-2.796-.217-4.195-.65-1.397-.432-2.604-.959-3.62-1.576l-.95 1.609h-1.764l-.309-10.712h1.787c.368 1.323.797 2.515 1.292 3.581.491 1.066 1.142 2.06 1.953 2.987.764.868 1.66 1.557 2.681 2.07 1.022.514 2.21.77 3.564.77 1.016 0 1.9-.13 2.66-.396.758-.263 1.37-.64 1.841-1.128.472-.484.82-1.056 1.048-1.71.228-.653.342-1.407.342-2.261 0-1.252-.355-2.418-1.058-3.497-.706-1.082-1.757-1.902-3.157-2.46-.957-.38-2.053-.803-3.287-1.261-1.237-.462-2.304-.898-3.2-1.307-1.763-.793-3.137-1.833-4.116-3.117-.98-1.284-1.468-2.964-1.468-5.034 0-1.19.244-2.298.73-3.325.484-1.027 1.174-1.946 2.072-2.756.853-.764 1.862-1.362 3.024-1.794 1.162-.432 2.376-.65 3.642-.65 1.441 0 2.734.221 3.873.66 1.139.442 2.18.955 3.124 1.544l.905-1.499h1.764l.176 10.381H90.53c-.326-1.19-.687-2.327-1.094-3.416-.403-1.088-.93-2.073-1.578-2.954-.632-.851-1.406-1.53-2.318-2.038-.91-.507-2.03-.76-3.355-.76-1.4 0-2.59.448-3.577 1.345-.986.897-1.477 1.99-1.477 3.286 0 1.352.315 2.47.95 3.36.631.891 1.552 1.622 2.76 2.194 1.074.514 2.128.959 3.167 1.333 1.038.373 2.04.773 3.013 1.202.882.38 1.732.816 2.549 1.3.817.485 1.526 1.05 2.131 1.697z" transform="translate(-859 -6302) translate(215 6173) translate(644 129)"/>
                    <path d="M30.743 25.324c-.352.042-.827.114-1.422.208-.596.094-1.078.23-1.445.41-.443.22-.755.532-.938.936-.185.402-.276.877-.276 1.423v2.425c0 1.761.01 2.95.032 3.568.023.617.049 1.125.078 1.521-1.956.88-3.905 1.557-5.848 2.028-1.943.471-3.847.705-5.715.705-2.002 0-3.929-.373-5.784-1.124-1.855-.751-3.472-1.817-4.856-3.198-1.399-1.401-2.509-3.098-3.332-5.1C.41 27.128 0 24.895 0 22.425c0-2.382.394-4.592 1.181-6.627.788-2.034 1.901-3.802 3.343-5.304C5.92 9.025 7.586 7.881 9.523 7.066c1.933-.816 4.006-1.226 6.213-1.226 1.767 0 3.303.215 4.612.64 1.308.426 2.463.94 3.466 1.544l.905-1.498h1.764l.198 10.93h-1.81c-.309-1.203-.693-2.389-1.148-3.559-.456-1.17-1.045-2.216-1.768-3.14-.722-.926-1.6-1.663-2.639-2.213-1.038-.552-2.278-.825-3.723-.825-1.575 0-2.981.318-4.221.958-1.237.64-2.314 1.593-3.226 2.857-.898 1.222-1.591 2.743-2.076 4.566-.485 1.824-.73 3.861-.73 6.11 0 1.986.242 3.855.72 5.613.478 1.758 1.175 3.276 2.09 4.557.914 1.306 2.053 2.337 3.423 3.087 1.37.751 2.926 1.125 4.664 1.125 1.295 0 2.477-.198 3.548-.595 1.067-.397 1.822-.816 2.265-1.258.117-.764.179-1.534.189-2.314.006-.78.01-1.44.01-1.982v-1.72c0-.617-.085-1.163-.254-1.64-.17-.478-.518-.826-1.048-1.047-.485-.221-1.143-.387-1.976-.494-.83-.11-1.48-.182-1.953-.208v-1.609h13.728v1.599h-.003zM111.353 38.717c-1.865 0-3.655-.367-5.37-1.102-1.712-.734-3.232-1.794-4.554-3.175-1.308-1.381-2.353-3.068-3.13-5.06-.782-1.992-1.169-4.238-1.169-6.737 0-2.5.38-4.768 1.146-6.806.765-2.034 1.822-3.79 3.173-5.258 1.338-1.456 2.916-2.58 4.742-3.374 1.822-.793 3.769-1.19 5.842-1.19 1.543 0 2.939.192 4.189.573 1.25.383 2.44.916 3.57 1.609l.905-1.499h1.764l.198 11.151h-1.81c-.234-1.085-.585-2.265-1.057-3.536-.472-1.27-1.022-2.347-1.654-3.227-.706-.998-1.542-1.781-2.512-2.347-.97-.565-2.08-.848-3.33-.848-1.425 0-2.753.315-3.977.949-1.227.63-2.288 1.566-3.186 2.802-.853 1.189-1.52 2.707-2.005 4.543-.485 1.836-.729 3.89-.729 6.152 0 2.002.254 3.835.762 5.503.508 1.67 1.23 3.136 2.17 4.4.941 1.251 2.054 2.23 3.34 2.935 1.285.705 2.72 1.06 4.309 1.06 1.191 0 2.285-.19 3.284-.563.999-.374 1.865-.871 2.6-1.488.736-.647 1.383-1.382 1.94-2.204.56-.822 1.015-1.72 1.367-2.688l1.657.793c-1.267 3.1-2.943 5.317-5.029 6.646-2.08 1.323-4.566 1.986-7.446 1.986z" transform="translate(-859 -6302) translate(215 6173) translate(644 129)"/>
                </g>
            </g>
        </g>
    </g>
</svg>
