<?xml version="1.0" encoding="utf-8"?>
<!-- Generator: Adobe Illustrator 23.0.1, SVG Export Plug-In . SVG Version: 6.00 Build 0)  -->
<svg version="1.1" id="Layer_1" xmlns="http://www.w3.org/2000/svg" xmlns:xlink="http://www.w3.org/1999/xlink" x="0px" y="0px"
	 viewBox="0 0 25 26" style="enable-background:new 0 0 25 26;" xml:space="preserve">
<style type="text/css">
	.st0{fill:#1C5FB8;}
</style>
<g>
	<g>
		<g>
			<g>
				<g>
					<g>
						<path class="st0" d="M22,2.5H2.8C2.4,2.5,1.9,3,1.9,3.4v19.1c0,0.4,0.4,0.9,0.9,0.9H22c0.4,0,0.9-0.4,0.9-0.9V3.4
							C22.8,2.9,22.5,2.5,22,2.5L22,2.5z M8.1,20.4H5v-10h3.2V20.4z M6.6,9c-1,0-1.8-0.8-1.8-1.8c0-1,0.8-1.8,1.8-1.8
							c1,0,1.9,0.8,1.9,1.8C8.4,8.2,7.6,9,6.6,9L6.6,9z M19.8,20.4h-3.2v-4.9c0-1.2,0-2.6-1.6-2.6c-1.6,0-1.9,1.3-1.9,2.6v4.9h-3.1
							v-10H13v1.4c0.4-0.8,1.4-1.6,2.9-1.6c3.2,0,3.7,2.1,3.7,4.8v5.4L19.8,20.4L19.8,20.4z"/>
					</g>
				</g>
			</g>
		</g>
	</g>
</g>
</svg>
