<svg xmlns="http://www.w3.org/2000/svg" width="176" height="88" viewBox="0 0 176 88">
    <g fill="none" fill-rule="evenodd" opacity=".384">
        <g fill="#000" fill-rule="nonzero">
            <g>
                <g>
                    <path d="M27.661 15.238l-1.052-3.61-.441-1.944c.065-.017.012-.147.01-.166-.374-3.082-2.76-2.736-4.31-2.207 0 0-.082.077-.08-.024.006-.125.008-1.374.008-1.71 0-.08.07-.104.07-.104 1.935-.847 4.736-.775 6.459.084 1.293.648 2.046 1.627 2.758 4.567.195.814.42 1.933 1.042 4.363.3 1.167.615 1.602 1.26 1.48.079-.015.081.026.081.096-.002.553-.002 1.48-.002 1.545 0 .192 0 .192-.065.19-.082-.003-1.78.002-1.78.002-.775-.005-1.719-.005-2.944-1.073l-1.014-1.49z" transform="translate(-1072 -1853) translate(1072 1853) translate(24.063 34.375)"/>
                    <path d="M27.661 15.238c.03.086-.096.173-.178.211-2.676 1.519-3.648-2.979-1.043-3.845.107-.029.17.024.17.024l-.442-1.944c-1.392.306-3.58.934-4.529 1.826-2.12 1.997-1.206 5.215 1.122 6.047 1.3.465 3.988.833 5.914-.83l-1.014-1.49zM45.85 4.63c1.473 0 2.67-.962 2.67-2.15 0-1.19-1.197-2.152-2.67-2.152-1.477 0-2.672.963-2.672 2.151 0 1.19 1.195 2.152 2.671 2.152M57.77 10.48c.081-.021.405-.014.378-.469-.07-1.16-.36-1.951-.7-2.413-.641-.869-1.816-.9-2.422.387-.355.751-.425 2.118-.376 3.03.017.284.062.298.323.236l.21 1.715c-.092.048-.205.008-.072.361.837 2.245 2.038 2.55 3.645 2.46.833-.046 1.764-.48 2.092-.65.326-.173.275.033.275.156v1.519c0 .245.022.332-.412.488-2.196.801-5.08.991-7.318-.108-1.882-.924-3.595-3.362-3.448-6.02.234-4.233 2.871-6.522 6.826-6.394 3.114.1 5.496 2.38 5.785 5.73.012.139.01.353-.123.427l-4.664-.454z" transform="translate(-1072 -1853) translate(1072 1853) translate(24.063 34.375)"/>
                    <path d="M57.77 10.48c-.55.167-2.797.77-2.797.77l.21 1.716c.09-.05 7.25-2.03 7.25-2.03l-4.664-.455zM19.188 16.819c-.002.58.133.801.179.897.038.087-.077.075-.077.075h-4.664s-.092.005-.063-.075c.056-.156.169-.437.169-.897l-.005-.602V9.425c-.002-.405-.253-1.273-1.235-1.276-.813.007-1.57.744-1.573 1.764v2.134l-.003 4.26.003.512c-.003.58.132.801.178.897.039.087-.077.075-.077.075H7.356s-.091.005-.063-.075c.056-.156.167-.437.17-.897V9.432c-.003-.407-.254-1.273-1.238-1.278-.811.007-1.571.744-1.571 1.764V16.475l-.005.344c0 .58.135.801.179.897.038.087-.075.075-.075.075H.089s-.094.005-.065-.075c.058-.156.166-.437.171-.897v-.404c0-1.495-.002-8.056-.005-8.66.005-.395-.12-.677-.18-.83-.037-.08.043-.116.043-.116s1.715-.768 4.526-2.062c.03-.012.077.005.075.055v2.099c0 .052.058.081.101.036.024-.025.053-.063.092-.106 1.542-2.344 6.34-2.724 7.096.081.014.049.067.044.099 0 .95-1.27 1.903-1.91 3.863-1.91 3.831 0 3.278 3.258 3.276 5.265l.002 5.95.005.602zM39.158 16.828c-.003.578.132.801.176.898.04.086-.075.074-.075.074H34.356s-.094.003-.065-.074c.056-.16.166-.438.169-.898l.002-.346-.002-8.454c0-.336-.227-.964-.27-1.078-.03-.06.065-.084.065-.084s2.031-1.034 4.83-2.327c.03-.012.075.005.075.056V5.85c0 .168.017.695.017.765 0 .055.058.084.099.038.024-.026.055-.062.091-.108 1.045-2.045 2.705-1.98 3.967-1.792.162.024.14.077.097.288-.083.405-.64 2.693-.688 2.861-.039.142-.077.205-.249.169-1.585-.332-3.334.183-3.334 2.153v.284c0 1.437 0 4.95.002 5.975l-.004.344zM48.347 16.828c-.002.578.133.801.177.898.04.086-.075.074-.075.074h-4.91s-.094.005-.068-.074c.058-.16.17-.438.172-.898l.002-.067V7.006c0-.24 0-.243.171-.32l.058-.027s1.622-.799 4.326-2.07c.03-.014.143.006.14.056 0 .385.005 11.103.007 12.137v.046zM76.826 15.579c-1.127.572-2.809.758-3.812-.515-1-1.268-1.492-2.378-1.49-4.194.003-4.13 2.877-4.67 5.058-3.456V5.292c-1.23-.623-2.854-.731-4.075-.604-3.636.388-5.76 3.427-5.762 6.884-.002 3.769 2.41 8.278 10.08 6.182V15.58zM82.852 16.35S82.835-.032 82.842.053c0 0-3.39 1.561-5.163 2.406.176.144.548.775.548 2.851v5.258c.002 1.504 0 4.387-.022 6.668-.002.25-.162.599-.162.623h5.123c-.051 0-.314-1.509-.314-1.509M91.516 15.372c.029.091-.02.12-.104.163-.584.371-1.585.453-2.174-.093-.554-.655-.844-1.403-.61-2.34.186-.574.777-1.578 1.764-1.753l-.316-1.882c.002.034 0 .031-.1.053-.298.074-.458.103-.976.19-1.093.18-2.329.551-3.357 1.35-2.931 2.271-1.556 5.614.826 6.595 1.39.573 3.843.908 5.87-.78l-.823-1.503z" transform="translate(-1072 -1853) translate(1072 1853) translate(24.063 34.375)"/>
                    <path d="M91.516 15.372l-1.088-4.007s0-.028-.036-.016l-.316-1.882c-.217-3.362-2.925-3.051-4.428-2.49 0 0-.084.079-.08-.027.003-.13.008-1.427.008-1.776-.002-.084.07-.106.07-.106 1.913-.837 4.837-.724 6.526.12 1.482.74 2.218 2.096 2.514 3.263 0 0 1.33 6.05 1.48 6.704.12.525.463.982.998.98.213 0 .242.04.244.26.002.529.005 1.345.002 1.458-.002.137-.012.187-.115.187l-1.839.003c-.943-.005-1.72-.007-3.117-1.167l-.823-1.504zM100.97 4.464c1.529 0 2.77-.999 2.77-2.233C103.74.999 102.498 0 100.97 0c-1.533 0-2.773.999-2.773 2.23 0 1.235 1.24 2.234 2.772 2.234M103.38 16.828v.262c0 .38.172.667.213.768.002.012-.012.02-.012.02H98.28s-.017-.008-.012-.02c.036-.094.21-.392.21-.768v-.284l.002-10.123c0-.233.109-.243.109-.243s1.793-.914 4.712-2.26c.029-.014.08.003.077.056l.003 12.592M113.798 7.975c-1.154-.017-1.443-.089-2.051.125-.758.289-1.279.89-1.293 1.807v7.183c0 .37.166.65.205.748.005.01-.01.017-.01.017h-5.151s-.015-.007-.012-.02c.036-.088.205-.38.205-.745V7.722c-.027-.344-.167-.76-.208-.868-.028-.06.066-.082.066-.082s1.99-.92 4.827-2.223c.027-.015.078.002.075.055v1.138c0 .168.02.705.02.777 0 .053.057.082.1.036.025-.026.054-.062.093-.108 1.143-2.113 3.01-1.846 3.961-1.696.164.024.14.077.097.29-.085.41-.623 2.592-.67 2.763-.042.145-.078.176-.254.171M121.621 10.765c.08-.024.403-.017.376-.472-.07-1.16-.36-1.95-.7-2.411-.641-.871-1.816-.902-2.422.387-.352.749-.422 2.118-.374 3.027.015.284.063.299.321.239l.21 1.713c-.09.05-.205.01-.072.363.837 2.245 2.04 2.548 3.645 2.46.833-.046 1.764-.482 2.092-.653.328-.173.278.036.278.16v1.517c0 .243.019.33-.413.489-2.198.799-5.081.989-7.318-.11-1.882-.922-3.595-3.362-3.45-6.019.234-4.235 2.874-6.523 6.826-6.393 3.117.1 5.496 2.377 5.785 5.727.013.14.013.353-.12.428l-4.664-.452z" transform="translate(-1072 -1853) translate(1072 1853) translate(24.063 34.375)"/>
                    <path d="M121.621 10.765c-.55.163-2.799.77-2.799.77l.21 1.713c.09-.048 7.253-2.031 7.253-2.031l-4.664-.452z" transform="translate(-1072 -1853) translate(1072 1853) translate(24.063 34.375)"/>
                </g>
            </g>
        </g>
    </g>
</svg>
