<svg xmlns="http://www.w3.org/2000/svg" width="176" height="88" viewBox="0 0 176 88">
    <g fill="none" fill-rule="evenodd" opacity=".384">
        <g>
            <g>
                <g>
                    <path fill="#000" fill-rule="nonzero" d="M57.614 8.064l1.883 5.186 1.883-5.186h-3.766zm3.368 9.945l-1.714-.001c-.753 0-1.4-.468-1.665-1.128L52.279 2.215h3.212l1.152 3.173h5.708l1.153-3.173h3.212L60.982 18.01z" transform="translate(-720 -1853) translate(720 1853) translate(54.656 34.031) matrix(1 0 0 -1 0 20.224)"/>
                    <path fill="#000" fill-rule="nonzero" d="M45.365 4.915c-.514-1.208-.822-1.932-1.79-1.932-.934 0-1.272.729-1.83 1.935l-2.884 6.224V2.215h-3.142v15.793h3.26l4.653-10.513 4.204 10.513h3.283V2.215h-3.141v8.832l-2.613-6.132z" transform="translate(-720 -1853) translate(720 1853) translate(54.656 34.031) matrix(1 0 0 -1 0 20.224)"/>
                    <path fill="#000" fill-rule="nonzero" d="M25.774 4.571h2.268c.55 0 .984.024 1.3.072.313.047.573.126.778.236.347.19.598.422.756.699.157.276.237.564.237.864 0 .347-.1.687-.296 1.018-.197.331-.492.6-.886.805-.252.126-.539.217-.862.272-.323.056-.68.083-1.074.083h-2.22V4.571zm0 6.63h1.56c.361 0 .708.016 1.038.048.33.03.567.086.71.165.409.19.704.43.885.723.18.291.271.595.271.911 0 .379-.122.73-.366 1.054-.244.323-.61.564-1.098.722l-.32.059c-.133.024-.283.04-.447.047l-.497.024c-.165.007-.31.012-.437.012h-1.299V11.2zm-3.141-9.329v15.793h5.62c.757 0 1.454-.095 2.091-.284.638-.19 1.185-.47 1.642-.84.457-.372.815-.822 1.075-1.35.26-.53.39-1.125.39-1.788 0-.71-.17-1.326-.508-1.846-.339-.522-.807-.964-1.406-1.327.851-.3 1.531-.778 2.044-1.432.511-.655.767-1.48.767-2.474 0-.837-.236-1.634-.709-2.392-.472-.758-1.189-1.318-2.149-1.68-.362-.128-.752-.223-1.169-.285-.417-.064-.823-.095-1.216-.095h-6.472z" transform="translate(-720 -1853) translate(720 1853) translate(54.656 34.031) matrix(1 0 0 -1 0 19.537)"/>
                    <path fill="#000" fill-rule="nonzero" d="M10.374.3c5.382 0 9.745 4.373 9.745 9.77 0 5.394-4.363 9.768-9.745 9.768-5.381 0-9.744-4.374-9.744-9.769C.63 4.673 4.993.3 10.374.3zm.813 13.025H9.563v2.442c0 .45.364.815.812.815.448 0 .812-.365.812-.814v-2.443zm-2.707.816H6.587c-.596 0-1.081.482-1.081 1.08 0 .29.112.561.316.766.073.073.154.134.242.182.06-.233.27-.402.52-.402H8.48v-1.626zm5.667-.41c-.061.235-.273.41-.524.41h-1.354v1.626h1.354c.597 0 1.082-.487 1.082-1.085 0-.29-.112-.563-.316-.768-.073-.073-.154-.134-.242-.182zm-7.544-3.255c-.088.048-.17.109-.242.182-.204.205-.317.477-.317.767 0 .599.486 1.086 1.083 1.086h6.497c.577 0 1.121.226 1.53.635.41.411.634.956.634 1.535 0 .236-.037.462-.106.675.403-.475.648-1.089.648-1.76 0-1.496-1.214-2.713-2.707-2.713H7.127c-.252 0-.464-.174-.524-.407zm1.877-2.85H7.126c-1.492 0-2.706 1.218-2.706 2.714 0 .671.245 1.286.649 1.76-.07-.212-.108-.439-.108-.674 0-1.198.971-2.171 2.166-2.171H8.48V7.626zm1.895-.814c-.448 0-.812.365-.812.815v2.442h1.624V7.627c0-.45-.363-.815-.812-.815zm3.771.408c-.06.233-.271.406-.523.406h-1.354v1.629h1.354c.597 0 1.083-.488 1.083-1.086 0-.408-.226-.764-.56-.95zM8.479 3.692c-.52.004-.676.135-1.488.543-.812.407-1.489.665-1.489.95 0 .394.283.813 1.354.813h6.767c1.194 0 2.166.974 2.166 2.172 0 .234-.038.46-.107.674.403-.475.648-1.089.648-1.76 0-1.497-1.214-2.714-2.436-2.714H9.833c-.577-.463-.967-.68-1.354-.678zm-.405.678c.224 0 .405.183.405.407 0 .225-.18.407-.405.407-.225 0-.406-.182-.406-.407 0-.224.181-.407.406-.407z" transform="translate(-720 -1853) translate(720 1853) translate(54.656 34.031)"/>
                </g>
            </g>
        </g>
    </g>
</svg>
