<svg xmlns="http://www.w3.org/2000/svg" width="176" height="88" viewBox="0 0 176 88">
    <g fill="none" fill-rule="evenodd" opacity=".384">
        <g fill-rule="nonzero">
            <g>
                <g>
                    <g fill="#000">
                        <path d="M6.125 6.53l.091.017-.026.09.134-.16v-.011l-.206.043.007.022zm.017-.252h.012l.117-.128v-.012l-.17.029v.012l.074.02-.024.072-.01.007zM5.75 7.282h-.14v.014l.053.024-.028.051.11-.084v-.012l.005.007zm.295-.24h-.173v.014l.07.026-.034.07.135-.11v-.013l.002.012zm.142-.155l.096.014-.024.094h.012l.132-.173-.211.055v.015l-.005-.005zm-.464.693v.015l.056.024-.03.05.111-.084v-.012l-.137.007zm.87 0l.094-.103v-.012l-.137.024v.014l.058.015-.02.055H6.6l-.007.007zm.07-.88l.159-.222-.262.074v.015l.125.014-.03.123h.015l-.007-.005zm-.505.625h-.175v.012l.07.032-.046.096.14-.106v-.012l.011-.022zm.32-1.204l.12.034-.046.116h.012l.19-.198v-.012l-.266.075-.01-.015zm-.082 1.204l.142-.168-.219.067v.015l.094.019-.029.094h.012v-.027zm.438-1.685l.11-.087h-.14v.014l.056.024-.029.051.003-.002zm-.38.24h.012l.17-.132v-.014H6.42v.014l.092.038-.048.085-.01.01zm.72 1.082v.014l.073.02-.024.07h.012l.118-.128v-.013l-.171.03-.007.007zM7.69 5.76l.11-.087v-.012h-.134v.012l.055.024-.031.063zM6.3 7.617h-.142v.014l.053.024-.029.05.11-.084.008-.004zm.997-1.927h.012l.137-.108h-.173v.014l.072.03-.038.067-.01-.003zm-.266.93l.096.019-.027.091h.012l.137-.168V6.55l-.211.048v.014l-.007.008zm.134-1.243h.721s.223.084.517.202c.129.049.208.179.194.316 0 0 .118.118.183.19.074.081.084.202.024.294-.045.058-.11.096-.183.106V6.47c.038-.056.032-.13-.014-.18-.043-.063-.082-.075-.125-.048l-.046.03.11.177v.012c-.093.028-.194.003-.264-.065h-.567v.012l.303.055v.022L6.975 7.713l.356-.318v.277l-.031.084.03.193v.084l.325.277h.017l.017.012h.017c.006.005.012.01.017.017l.016.017.015.02v.088h.014V8.45v-.036-.012-.03c.002-.008.002-.017 0-.026-.005-.01-.011-.018-.019-.026-.005-.01-.013-.018-.022-.024l-.024-.017h-.028l.122-.027h.031l.02.015.016.014.017.017.015.02c-.002.006-.002.012 0 .019v.081h.014v-.012-.014-.036-.029L7.898 8.3c-.011-.018-.025-.034-.04-.048l-.027-.019h-.024c.57-.123 1.011-.207 1.011-.207.577.342.54.32.661.388.219.122.21.481-.204.481-.418.009-.834.05-1.245.123l.313-.284c-.216.151-.441.287-.676.407-.2.08-.497.21-.805.349l.455-.433c-.314.253-.646.483-.993.688l-.581.265c-.148.081-.324.093-.48.031-.296-.105-.412-.146-.662-.24-.066-.023-.111-.085-.111-.156 0-.07.045-.133.111-.155l.445-.099.158.068.24.108.116.05H5.6l.04.03c.022.019.038.043.048.07.006.02.006.043 0 .064.002.015.002.03 0 .044v.014h.017v-.014l.012-.048c.006-.026.006-.052 0-.077-.009-.033-.026-.063-.05-.087-.014-.014-.03-.026-.046-.036h-.024l-.026-.015-.108-.06-.24-.135-.481-.272s.612-.195 1.398-.412l.128.058-.075-.06L6 8.524l-.096-.033-.065-.176-.087-.05-.086-.393H5.65l.036.428-.24.138v-.564h-.012l-.072.6-.33.062.114-.647h-.015l-.201.664-.322.022.24-.694h-.015l-.343.706-.317.022.37-.723h-.012l-.507.754-.315.029.55-.812h-.012L3.323 8.91l-.048-.032.827-1.302 1.268-.482.135-.06.08-.034.038-.022.038-.026c.025-.017.047-.036.067-.058l.017-.014s0-.012.012-.017l.029-.034.022-.034.019-.033.017-.034.014-.031c0-.022.012-.041.017-.058.005-.017 0-.034 0-.046v-.029H5.86v.03s0 .023-.014.04c-.005.019-.012.036-.022.053l-.014.029-.017.031-.021.032-.025.028-.026.03-.017.014H5.69c-.02.018-.042.034-.065.048l-.036.02-.039.016-.074.029-.14.05-.098.034-.08-.163.164-.147-.44.27L4.78 6.8l.594-.44v-.015l-.904.542-.084-.217.853-.57-1.098.604-.07-.202.93-.59V5.9l-1.136.58-.034-.24.94-.509V5.72l-1.161.482V5.96l.947-.371v-.014l-1.151.315.014-.258.875-.202v-.012l-1.12.152.036-.224.824-.09v-.014l-1.15.02.016-.188h.918v-.017l-1.648-.12v-.015l.233-.094v-.012l-.678-.26v-.017l.272-.022v-.014l-.584-.364V4.12l.413.022V4.13l-.48-.448.223.04-.197-.303-.137-.4h.012l.214.268.48.28h.012l-.312-.458-.118-.513h.015l.252.38.48.398-.278-.576-.103-.662h.016l.291.563.613.508-.406-.688-.094-.812h.012l.262.723.867.782 1.096.561 1.201 1.672.467.392h.012l-.219-.284.48-.125v-.015l-.415-.024v-.014l.613-.109v-.014l-.764-.058V5.18l.975-.164.387.091v-.014l-.37-.169-.606.012v-.014l.644-.12.402.134v-.012l-.363-.24-.43-.017V4.65l.48-.075.42.198V4.76l-.345-.325h-.36V4.42l.453-.087.409.335-.312-.457-.337-.085v-.014l.433-.027.389.482-.281-.59-.353-.125v-.015l.48.039L8 4.5l-.24-.723-.469-.168v-.015l.567.104.317.751-.206-.838-.502-.287.598.227.283.84h.015l-.178-.917-.545-.4v-.012l.675.308.24.884h.014l-.158-.954-.572-.51.668.457.195.901h.014l-.099-.963-.571-.619v-.012l.663.568.144.872h.038l-.062-.918-.536-.715.637.667.1.754h.015l-.033-.8-.486-.768h.012l.572.723.077.542H9.2l-.026-.59-.35-.783h.011l.435.747.04.305h.015l.022-.349-.183-.74h.015l.24.622h.014l.154-.621h.015l-.05.61h.014l.422-.613-.273.552.677-.453v.012l-.985 1.337s-.32.855-.423 1.141c-.02.052-.06.094-.11.116l-.8.32-.212.185-.706.085v.017l.01-.003zM6.081 0C2.732 0 .017 2.721.017 6.078s2.715 6.078 6.064 6.078c3.35 0 6.065-2.721 6.065-6.078 0-1.612-.638-3.159-1.775-4.299C9.233.64 7.69 0 6.08 0m.887 6.218l.115.024-.036.113h.012l.171-.198v-.012l-.262.058v.015zm.48.498l.058.012-.019.058.094-.104V6.67l-.14.024v.015l.008.007zm-.92 1.926h.034l.017.017h.012l.014.02.015.019v.067h.014v-.014V8.715v-.03l.027-.016v-.017l-.024-.022-.027-.016h-.122v.014h.028m.55.221c-.017.003-.034.008-.05.015l-.115.034-.108.031-.06.02-.06.018-.262.092-.169.063-.09.036-.083.031-.038.014-.082.034h-.024l-.11.046-.046.02-.06.026v.021l.06-.021.046-.015.115-.043.034-.012.074-.027.036-.014.084-.029.09-.034.167-.06.262-.094.118-.04.082-.03h.026l.137-.021.048-.017.065-.024v-.022l-.067.02-.02-.018zm-1.177.205l.05-.017.19-.062.068-.024h.019l.077-.027.086-.029h.032l.045-.017v-.021l-.045.012h-.024l-.096.024-.082.022-.06.019h-.027l-.192.062-.154.053H5.721l-.144.056-.05.046-.051.019-.043.017v.021l.05-.014h.07l.048-.015.098-.03.068-.023.141-.045m.988-1.751v.014l.075.017-.025.073.12-.128v-.012l-.172.029.002.007zm-.125-.178l.151-.224v-.012l-.269.067.123.012-.022.12h.012l.005.037zm.807-.819l-.173.015v.014l.073.024-.032.07.128-.118v-.012l.004.007zm-.81 1.941l-.357-.438h-.02l.097.508.19.219h.045l.02.012.016.017.014.017c.007.004.012.011.015.019l.014.017v.07h.015v-.017-.022-.029c-.004-.01-.008-.018-.015-.026-.004-.01-.01-.019-.016-.027l-.025-.021c-.007-.007-.016-.013-.026-.017l-.026-.012h.014l.103-.027H6.855c.007.003.012.007.017.012h.02l.016.015.017.017.014.019.012.02v.069h.015v-.015c.002-.004.002-.01 0-.014v-.048-.027c.002-.01.002-.019 0-.029l-.02-.026c-.006-.008-.015-.014-.024-.02l-.024-.019h-.026l.336-.043-.32-.178-.12.024zm.599-2.324l.089.039-.046.084.173-.132v-.015h-.218v.015l.002.01zM4.21 3.94l-.409.207-.021-.12h-.02v.2h.017l.445-.283V3.93l-.012.01zm.389.481l-.57.308-.021-.12h-.02v.207h.015l.608-.383v-.017l-.012.005zm-.185-.24l-.54.286-.03-.133v.2h.015l.577-.358-.022.004zm.839.984l-.407.207-.021-.118h-.02v.198h.015l.445-.28v-.016l-.012.01zm-.222-.24l-.48.255-.022-.12H4.51v.2h.014l.522-.324-.015-.012zm-.218-.241l-.558.291-.021-.12h-.02v.202h.017l.594-.366v-.015l-.012.008zm-1.32-.309v-.024l-1.249-.344-.562-.458v.015l.51.53 1.302.281zm.037-.255v-.024l-1.06-.342-.517-.494-.014.017.464.557 1.122.286h.005zm3.383 1.72l.091.038-.048.084.173-.132v-.015h-.216v.025zM2.249 4.634l.459.135.913.082v-.036L2.251 4.6v.024l-.002.012zm.118-1.577l-.017.015.382.527.927.308v-.021l-.857-.354-.442-.482.007.007zm3.07 2.36l-.29.137-.022-.11h-.019v.19h.017l.327-.212v-.015l-.012.01zM3.516 4.58l-1.737-.359v.022l.45.166 1.285.195V4.58h.002zm.51-.797v-.022l-.796-.39-.48-.652-.02.014.438.723.86.334-.002-.007zm3.38 4.992H7.49l.084-.017.081-.017h.017l.094-.022.084-.021H7.932v-.022h-.176l-.096.022-.18.048-.046.014h-.033v.022l.004-.007zm.721-.328H8.234c.07-.012.154-.024.24-.04h.02l.103-.022h.108l.056-.015h.048V8.35H8.696l-.104.014-.122.022-.24.048-.053.014-.007-.019h-.027v.022l-.017-.003zm-.63-.067H7.549l.014.017.014.02c.005.005.009.011.012.018v.082h.014V8.5c.002-.007.002-.014 0-.021.002-.01.002-.02 0-.03-.003-.01-.008-.019-.014-.028l-.017-.027-.019-.016-.024-.017h-.103v.012h.014m.73-2.1v-.015c-.002-.004-.002-.01 0-.014v-.017c0-.017 0 0 0 0v-.012h.097H8.19l-.031.015-.015.03c.008.002.017.002.025 0v.015m.024-.407v.022h.014c.013.003.026.003.038 0H8.288c.01-.007.02-.016.028-.026.007-.01.012-.02.015-.032v-.029-.017-.014h-.017v.017h-.058v-.022-.032h-.031c-.003.011-.003.022 0 .032v.02.016l-.031.065zm.48.311v.079c.002.004.002.009 0 .013V6.307 6.266v-.012-.015-.029-.026V6.133l-.017-.021-.168-.162-.04.048.187.14.014.017m-3.013 0v-.043H5.62l-.02.115h.015l.217-.15-.012-.016-.178.087-.005.007zm-.08-.508l-.206.089-.02-.082h-.016v.159h.014l.24-.159V5.64l-.011.007zm.128.749v-.044h-.02l-.018.116.014.012.156-.116V6.35l-.12.048-.012-.002zm.1-.569l-.24.111v-.07H5.53l-.017.147h.014l.289-.178V5.82l-.03.007zM8.65 8.496l-.089.014-.084.014h-.149l-.074.017h-.077v.022H8.48l.105-.015h.154l.084-.012.106-.016h.045l.068-.012H9.126v-.022H8.737l-.09.012M4.929 7.51v.014l.055.022-.028.053.11-.087v-.012l-.137.01zm.264 2.24l-.197-.088.19-.1V9.55l-.283.082c-.013.004-.022.014-.024.027-.005.008-.005.019-.001.028.004.009.012.015.022.017l.281.09.14.048.142.048v-.015l-.135-.062-.135-.063m.128-2.24v.015l.055.022-.029.053.11-.087v-.012l-.136.01z" transform="translate(-544 -1853) translate(544 1853) translate(16.156 37.813)"/>
                    </g>
                    <path fill="#110F0D" d="M16.719 10.208c0 .775.24 1.444 1.425 1.685l.43.087v.087h-5.702v-.087l.43-.087c1.184-.24 1.425-.91 1.425-1.685V1.895c0-.775-.24-1.462-1.425-1.705l-.43-.086V.019h5.702v.085l-.43.086c-1.185.241-1.425.93-1.425 1.705v8.313zM30.516 2.53v9.793h-.12L21.663 2l.053 6.366c.016 2.89.927 3.27 1.972 3.548l.277.067v.087H19.31v-.087l.274-.067c1.031-.26 1.978-.672 1.978-3.548V1.912l-.207-.226c-.91-.997-1.494-1.41-2.439-1.58V.019h4.174c.428.776 1.048 1.532 2.42 3.167l4.91 5.818-.05-6.199C30.355.742 29.598.311 28.533.157l-.396-.051V.019h10.812c4.465 0 6.747 2.822 6.747 5.972 0 3.15-2.282 6.076-6.747 6.076h-6.007v-.087l.411-.067c1.22-.208 1.442-.913 1.442-1.705V2.53c0-1.842-.944-2.425-2.129-2.425s-2.15.583-2.15 2.425m8.054 9.449c3.195 0 4.877-2.27 4.877-5.936 0-3.665-1.828-5.938-5.021-5.938h-1.649v10.085c0 .997.224 1.789 1.428 1.789h.365zm13.482 0c1.922 0 2.936-.552 3.76-1.963l.817-1.348h.077v3.398H46.103v-.087l.427-.067c1.185-.19 1.428-.93 1.428-1.705V1.845c0-.81-.24-1.412-1.428-1.655l-.427-.084V.019h10.149v3.408h-.087l-.807-1.462c-.814-1.483-1.922-1.859-4-1.859h-1.409v5.695l.858-.017c1.838-.034 2.456-.12 3.04-1.98l.19-.601h.084v5.283h-.084l-.19-.585c-.6-1.876-1.185-1.944-3.04-1.977l-.858-.02v4.335c0 1.03.378 1.736 1.598 1.736l.505.005zM63.309.02c2.696 0 4.587 1.48 4.587 3.592s-1.891 3.612-4.587 3.612h-.738v-.096h.034c1.958 0 3.11-1.36 3.11-3.511 0-2.15-1.152-3.511-3.11-3.511h-.613v9.93c0 1.291.327 1.583 1.735 1.877l.327.067v.087h-5.93v-.087l.427-.087c1.187-.24 1.428-.91 1.428-1.685v-8.33c0-.773-.24-1.445-1.428-1.685l-.427-.087V.019h5.185zm11.026 11.96c1.923 0 2.937-.552 3.76-1.963l.808-1.348h.087v3.398H68.374v-.087l.43-.067c1.187-.19 1.427-.93 1.427-1.705V1.845c0-.81-.24-1.412-1.427-1.655l-.43-.084V.019h10.152v3.408h-.087l-.807-1.462c-.807-1.483-1.922-1.859-4-1.859h-1.409v5.695l.858-.017c1.838-.034 2.456-.12 3.04-1.98l.19-.601h.098v5.283h-.086l-.19-.585c-.601-1.876-1.185-1.944-3.04-1.977l-.858-.02v4.335c0 1.03.378 1.736 1.596 1.736l.504.005zm17.14-9.45v9.794h-.12L82.612 2l.043 6.366c.015 2.89.925 3.27 1.973 3.548l.276.067v.087h-4.651v-.087l.276-.067c1.03-.26 1.975-.672 1.975-3.548V1.912l-.202-.226c-.91-1-1.494-1.411-2.439-1.582V.019h4.174c.428.776 1.048 1.532 2.42 3.167l4.913 5.818-.053-6.199C91.302.742 90.548.311 89.483.157l-.397-.051V.019H99.9c4.464 0 6.75 2.822 6.75 5.972 0 3.15-2.286 6.076-6.75 6.076h-6.007v-.087l.41-.067c1.221-.208 1.442-.913 1.442-1.705V2.53c0-1.842-.944-2.425-2.128-2.425-1.185 0-2.13.583-2.13 2.425m8.055 9.449c3.193 0 4.878-2.27 4.878-5.936 0-3.665-1.85-5.938-5.044-5.938h-1.65v10.085c0 .997.223 1.789 1.424 1.789h.392zm13.482 0c1.922 0 2.936-.552 3.758-1.963l.798-1.348h.084v3.398H107.05v-.087l.43-.067c1.184-.19 1.425-.93 1.425-1.705V1.845c0-.81-.24-1.412-1.425-1.655l-.43-.084V.019h10.149v3.408h-.084l-.807-1.462C115.5.482 114.373.106 112.307.106h-1.408v5.695l.858-.017c1.838-.034 2.455-.12 3.037-1.98l.192-.601h.084v5.283h-.084l-.192-.585c-.598-1.876-1.182-1.944-3.037-1.977l-.858-.02v4.335c0 1.03.375 1.736 1.595 1.736l.529.005zm17-8.828c-.031-2.22-.786-2.841-1.85-2.995l-.394-.051V.019h4.615v.087l-.394.05c-1.064.155-1.838.776-1.838 2.996v9.172h-.12L121.305 2l.05 6.366c.018 2.89.928 3.27 1.976 3.548l.274.067v.087h-4.654v-.087l.276-.067c1.028-.26 1.975-.672 1.975-3.548V1.912l-.209-.226c-.908-1-1.492-1.411-2.436-1.582V.019h4.173c.428.776 1.048 1.532 2.422 3.167l4.91 5.818-.051-5.852h.012zm7.355-3.046h-.757c-1.612 0-2.283.826-2.9 2.374l-.584 1.464h-.087V.02h10.637v3.925h-.086l-.581-1.464c-.61-1.548-1.255-2.374-2.893-2.374h-.765V10.22c0 .775.24 1.514 1.425 1.705l.43.067v.087h-5.699v-.087l.43-.067c1.185-.19 1.425-.93 1.425-1.705l.005-10.114z" transform="translate(-544 -1853) translate(544 1853) translate(16.156 37.813)"/>
                </g>
            </g>
        </g>
    </g>
</svg>
