<?xml version="1.0" encoding="utf-8"?>
<!-- Generator: Adobe Illustrator 23.0.1, SVG Export Plug-In . SVG Version: 6.00 Build 0)  -->
<svg version="1.1" id="Layer_1" xmlns="http://www.w3.org/2000/svg" xmlns:xlink="http://www.w3.org/1999/xlink" x="0px" y="0px"
	 viewBox="0 0 176 88" style="enable-background:new 0 0 176 88;" xml:space="preserve">
<style type="text/css">
	.st0{fill:#3BA73A;}
	.st1{fill:#FB0601;}
</style>
<g>
	<g>
		<rect x="65.6" y="18.3" class="st0" width="11.7" height="11.7"/>
		<rect x="79.6" y="18.3" class="st0" width="11.7" height="11.7"/>
		<rect x="94" y="18.3" class="st0" width="11.7" height="11.7"/>
		<rect x="65.6" y="32.3" class="st0" width="11.7" height="11.7"/>
		<rect x="79.6" y="32.3" class="st0" width="11.7" height="11.7"/>
		<rect x="65.6" y="46.9" class="st0" width="11.7" height="11.7"/>
		<rect x="94" y="32.3" class="st0" width="11.7" height="11.7"/>
		<rect x="79.8" y="46.9" class="st0" width="11.7" height="11.7"/>
		<rect x="94.3" y="46.9" class="st0" width="11.7" height="11.7"/>
	</g>
	<g>
		<g>
			<path class="st1" d="M68.3,68.9c0,0-0.2,0-0.5-0.1c-0.3-0.1-0.7-0.2-1-0.3c-0.3-0.1-0.6-0.3-0.8-0.5l0.7-1.2
				c0.3,0.2,0.6,0.4,1,0.6c0.4,0.1,0.8,0.2,1.2,0.2c0.5,0,0.8-0.1,1.1-0.2c0.3-0.2,0.4-0.4,0.4-0.7v0c0-0.2-0.1-0.4-0.2-0.5
				c-0.1-0.1-0.3-0.2-0.5-0.3c-0.2-0.1-0.4-0.1-0.7-0.2c0,0,0,0,0,0s0,0,0,0l-0.1,0c-0.5-0.1-0.9-0.2-1.3-0.3
				c-0.3-0.1-0.6-0.3-0.9-0.6c-0.2-0.3-0.4-0.7-0.4-1.3v0c0-0.5,0.1-0.9,0.3-1.3c0.2-0.3,0.5-0.6,1-0.8c0.4-0.2,0.9-0.3,1.5-0.3
				c0.3,0,0.6,0,0.8,0.1c0.3,0.1,0.6,0.2,0.8,0.3c0.3,0.1,0.5,0.3,0.8,0.4l-0.6,1.2c-0.3-0.2-0.6-0.4-0.9-0.5
				c-0.3-0.1-0.6-0.2-0.9-0.2c-0.4,0-0.8,0.1-1,0.2c-0.2,0.1-0.4,0.3-0.4,0.6v0c0,0.2,0.1,0.4,0.2,0.5c0.1,0.1,0.3,0.2,0.5,0.3
				c0.2,0.1,0.4,0.1,0.8,0.2c0,0,0,0,0,0s0,0,0,0c0,0,0,0,0.1,0c0,0,0,0,0.1,0c0.5,0.1,0.9,0.2,1.2,0.3c0.3,0.1,0.6,0.4,0.8,0.7
				c0.2,0.3,0.3,0.7,0.3,1.2v0c0,0.5-0.1,0.9-0.3,1.3s-0.6,0.6-1,0.8c-0.4,0.2-1,0.3-1.6,0.3C68.4,68.9,68.3,68.9,68.3,68.9z"/>
			<path class="st1" d="M74.2,68.6c-0.4-0.2-0.7-0.6-1-1c-0.2-0.4-0.3-0.9-0.3-1.5v-2.2c0-0.6,0.1-1.1,0.3-1.5c0.2-0.4,0.6-0.8,1-1
				c0.4-0.2,0.9-0.3,1.5-0.3s1,0.1,1.5,0.3c0.4,0.2,0.7,0.6,1,1c0.2,0.4,0.3,0.9,0.3,1.5v2.2c0,0.6-0.1,1.1-0.3,1.5
				c-0.2,0.4-0.6,0.8-1,1c-0.4,0.2-0.9,0.3-1.5,0.3S74.6,68.8,74.2,68.6z M76.3,67.3c0.2-0.1,0.3-0.3,0.5-0.5
				c0.1-0.2,0.2-0.4,0.2-0.7v-2.2c0-0.3-0.1-0.5-0.2-0.7c-0.1-0.2-0.3-0.4-0.5-0.5c-0.2-0.1-0.4-0.2-0.7-0.2c-0.3,0-0.5,0.1-0.7,0.2
				c-0.2,0.1-0.3,0.3-0.5,0.5c-0.1,0.2-0.2,0.4-0.2,0.7v2.2c0,0.3,0.1,0.5,0.2,0.7c0.1,0.2,0.3,0.4,0.5,0.5c0.2,0.1,0.4,0.2,0.7,0.2
				C75.9,67.5,76.1,67.4,76.3,67.3z M75.4,66.7l0.8-1l3,2.2l-0.8,1L75.4,66.7z"/>
			<path class="st1" d="M81.3,68.6c-0.4-0.2-0.7-0.5-1-1c-0.2-0.4-0.3-0.9-0.3-1.5v-4.9h1.4v4.9c0,0.4,0.1,0.8,0.4,1
				c0.2,0.2,0.6,0.4,1,0.4c0.4,0,0.8-0.1,1-0.4c0.2-0.2,0.4-0.6,0.4-1v-4.9h1.4v4.9c0,0.6-0.1,1.1-0.3,1.5c-0.2,0.4-0.5,0.8-1,1
				c-0.4,0.2-0.9,0.3-1.5,0.3C82.2,68.9,81.7,68.8,81.3,68.6z"/>
			<path class="st1" d="M89.3,61.2h0.9l2.9,7.6h-1.5l-1.8-5.2L88,68.8h-1.5L89.3,61.2z M87.8,66.2h4v1.4h-4V66.2z"/>
			<path class="st1" d="M94.1,61.2h1.4v7.6h-1.4V61.2z M94.7,64.4h2.7c0.1,0,0.3,0,0.4-0.1c0.1-0.1,0.2-0.2,0.3-0.3
				c0.1-0.1,0.1-0.3,0.1-0.5c0-0.2,0-0.3-0.1-0.5s-0.1-0.2-0.3-0.3c-0.1-0.1-0.2-0.1-0.4-0.1h-2.7v-1.4h2.8c0.4,0,0.8,0.1,1.1,0.3
				c0.3,0.2,0.6,0.5,0.7,0.8c0.2,0.3,0.3,0.7,0.3,1.2s-0.1,0.9-0.3,1.2c-0.2,0.3-0.4,0.6-0.7,0.8c-0.3,0.2-0.7,0.3-1.1,0.3h-2.8
				V64.4z M96.3,65.5l1.5-0.2l2.1,3.5h-1.7L96.3,65.5z"/>
			<path class="st1" d="M101.1,61.2h1.4v7.6h-1.4V61.2z M101.6,61.2h4.6v1.4h-4.6V61.2z M101.6,64.3h4v1.4h-4V64.3z M101.6,67.4h4.6
				v1.4h-4.6V67.4z"/>
		</g>
	</g>
</g>
</svg>
