<svg xmlns="http://www.w3.org/2000/svg" width="72" height="30" viewBox="0 0 72 30">
    <g fill="none" fill-rule="evenodd">
        <g fill-rule="nonzero">
            <g>
                <g>
                    <g>
                        <path fill="#0060BE" d="M0 0H71.924V29.111H0z" transform="translate(-1178 -564) translate(33 -26) translate(1123 569) translate(22 21)"/>
                        <g fill="#FFF">
                            <path d="M5.187.432L13.01.432 17.806 16.683 17.879 16.683 21.168.432 27.078.432 22.107 23.866 14.32 23.866 9.415 7.651 9.349 7.651 6.096 23.866.187 23.866zM29.385.432L35.665.432 33.817 9.398 41.24 9.398 43.088.432 49.369.432 44.5 23.866 38.183 23.866 40.265 13.83 32.878 13.83 30.796 23.866 24.523 23.866zM65.882 5.737c-1.61-.74-3.366-1.11-5.138-1.077-2.482 0-4.498.371-4.498 2.249 0 3.326 9.097 2.081 9.097 9.199 0 6.477-6.01 8.158-11.447 8.158-2.471-.057-4.921-.464-7.278-1.208l1.456-4.767c1.244.808 3.726 1.346 5.77 1.346 2.046 0 5-.37 5-2.787 0-3.762-9.097-2.35-9.097-8.966 0-6.04 5.306-7.86 10.444-7.86 2.91 0 5.604.306 7.183 1.041l-1.492 4.672z" transform="translate(-1178 -564) translate(33 -26) translate(1123 569) translate(22 21) translate(1.844 2.377)"/>
                        </g>
                    </g>
                </g>
            </g>
        </g>
    </g>
</svg>
