<svg xmlns="http://www.w3.org/2000/svg" width="111" height="45" viewBox="0 0 111 45">
    <g fill="none" fill-rule="evenodd">
        <g fill-rule="nonzero">
            <g>
                <g>
                    <path fill="#0060BE" d="M0 0H110.883V45H0z" transform="translate(-386 -6301) translate(215 6173) translate(171 128)"/>
                    <g fill="#FFF">
                        <path d="M7.996.667L20.057.667 27.451 25.789 27.563 25.789 32.634.667 41.745.667 34.082 36.892 22.077 36.892 14.515 11.828 14.414 11.828 9.398 36.892.288 36.892zM45.301.667L54.984.667 52.134 14.527 63.578 14.527 66.428.667 76.111.667 68.605 36.892 58.866 36.892 62.075 21.379 50.687 21.379 47.478 36.892 37.807 36.892zM101.568 8.869c-2.482-1.146-5.19-1.715-7.921-1.665-3.826 0-6.934.574-6.934 3.476 0 5.141 14.025 3.218 14.025 14.22 0 10.013-9.268 12.611-17.649 12.611-3.809-.089-7.586-.717-11.22-1.867l2.244-7.369c1.919 1.249 5.745 2.081 8.898 2.081 3.152 0 7.708-.574 7.708-4.309 0-5.816-14.025-3.633-14.025-13.86 0-9.337 8.18-12.15 16.1-12.15 4.488 0 8.64.473 11.074 1.61l-2.3 7.222z" transform="translate(-386 -6301) translate(215 6173) translate(171 128) translate(2.842 3.675)"/>
                    </g>
                </g>
            </g>
        </g>
    </g>
</svg>
