<?xml version="1.0" encoding="utf-8"?>
<!-- Generator: Adobe Illustrator 23.0.1, SVG Export Plug-In . SVG Version: 6.00 Build 0)  -->
<svg version="1.1" id="Layer_1" xmlns="http://www.w3.org/2000/svg" xmlns:xlink="http://www.w3.org/1999/xlink" x="0px" y="0px"
	 viewBox="0 0 70 70" style="enable-background:new 0 0 70 70;" xml:space="preserve">
<style type="text/css">
	.st0{fill:#1C5FB8;}
	.st1{fill:#EEF9FA;}
</style>
<g>
	<g>
		<path class="st0" d="M16.1,18.1c0.2-1.2-0.2-1.9-0.9-2.1c-1.4-0.4-2.8,0.2-2.8,0.2l-2.1,2.3c0,0,2.5,1.8,3.7,2.1
			C14.7,20.7,15.8,19.1,16.1,18.1L16.1,18.1z"/>
		<path class="st0" d="M16,19.1c0-0.4,0.2-0.7,0.2-1.1c-0.5,1.2-1.1,1.8-1.8,1.6C13,19.2,11.9,18,11.9,18l-1.6,0.4l1.1,1.8
			c0,0,1.1,1.2,2.3,1.4C14.7,21.9,15.4,21.1,16,19.1z"/>
		<path class="st1" d="M21.8,56.4c1.4,0.4,4.4,0.4,7.7-2.8c4-5.3,10.9-16.7,11.8-22.7c0-0.4,0-0.5,0-0.9c-0.2-4.6-4.6-7.9-7.7-8.8
			l-0.6,2c4.2,3,4.7,4.9,4,8.1C36.7,34.8,33.5,42.8,21.8,56.4L21.8,56.4z M7.7,53c-1.4-0.4-4.2-1.6-5.6-6.1
			C0.9,40.4-0.4,27,1.4,21.2c0.2-0.2,0.2-0.5,0.4-0.7c2.1-4,7.6-5.1,10.7-4.4L12,18c-5.1,0.7-6.3,2.3-7,5.4
			C3.9,26.9,3.1,35.5,7.7,53z"/>
		<path class="st0" d="M33.2,23.2l-0.5,2.1c1.8,0.4,4.4,2.6,4.6,4.9c0,0.4,0,0.7,0,1.2c0.5-1.4,0.5-2.6,0.5-3.2
			C37.6,25.8,34.9,23.7,33.2,23.2z M5.8,20.4c1.1-1.9,4.4-2.6,6.1-2.3l-0.4,2.1c-1.8-0.4-5.1,0.4-6.1,2.3c-0.2,0.4-0.4,0.7-0.5,1.1
			C5.1,22.1,5.4,21.1,5.8,20.4L5.8,20.4z M25.5,55.5c8.4-10.2,14.2-19.1,15.8-24.6c-0.2,3.9-2.6,10.9-11.8,22.7
			C27.7,55.1,26.3,55.8,25.5,55.5z M2.1,46.9c-3.2-14.6-2.3-22.1-0.7-25.6c-0.9,5.6,0.4,16.3,3.5,29.3C4,50.4,3,49.2,2.1,46.9z"/>
		<path class="st0" d="M6.5,60.8c-1.2-4.2-0.7-6.9-1.6-10c0.9,0.9,1.9,1.8,2.8,2.5c0.5,2.1,1.2,4.4,1.9,6.9c0.5,1.8,1.8,3,3.2,3.3
			s3-0.2,4.2-1.6c1.8-1.8,3.3-3.5,4.7-5.3c1.2-0.2,2.5-0.5,3.7-0.9c-2.1,2.5-2.8,5.1-5.8,8.3C15.3,68.7,8.2,66.9,6.5,60.8L6.5,60.8z
			"/>
		<path class="st0" d="M5.8,61.1C4.2,55.8,3,51.1,2.1,47c0.7,1.4,1.8,2.6,2.8,3.7c0.9,3.2,1.8,6.5,2.8,10c1.6,5.3,7.4,6.7,11.1,2.6
			c2.5-2.6,4.7-5.3,6.9-7.7c1.4-0.5,2.8-1.2,4-1.9c-2.6,3.3-5.6,6.9-9.5,10.9C15.3,69.7,7.9,67.8,5.8,61.1L5.8,61.1z"/>
	</g>
	<path class="st0" d="M53.2,15.4c-0.2-1.2,0-2.1,0.7-2.3c1.2-0.4,2.8,0,2.8,0l2.3,2.2c0,0-2.5,2.1-3.7,2.5
		C54.8,18.1,53.6,16.5,53.2,15.4L53.2,15.4z"/>
	<path class="st0" d="M53.4,16.7c-0.2-0.4-0.2-0.7-0.4-1.1c0.5,1.2,1.2,1.6,2.1,1.4c1.2-0.4,2.3-1.8,2.3-1.8l1.8,0.2l-1.1,1.9
		c0,0-1.1,1.4-2.3,1.8C55,19.3,54.1,18.4,53.4,16.7z"/>
	<g>
		<path class="st1" d="M47.8,57.8c-1.4,0.4-4.7,0.5-8.3-2.8c-4.4-5.4-12.1-17.2-13.2-23.4c0-0.4,0-0.7,0-0.9c0-4.7,4.6-8.4,7.9-9.3
			l0.5,1.9c-4.4,3.2-4.7,5.3-3.9,8.6C31.4,35.5,34.8,43.7,47.8,57.8L47.8,57.8z M62.5,53.9c1.4-0.4,4.4-1.8,5.8-6.5
			c1.1-7,1.9-20.9-0.2-26.9c-0.2-0.4-0.4-0.5-0.4-0.9c-2.3-4-8.1-5.1-11.4-4.2l0.5,1.9c5.4,0.7,6.9,2.3,7.6,5.4
			C65.7,26.5,66.7,35.3,62.5,53.9z"/>
		<path class="st0" d="M34.6,23.3l0.5,2.1c-1.8,0.5-4.6,2.8-4.6,5.3c0,0.4,0,0.7,0.2,1.2c-0.5-1.6-0.7-2.6-0.7-3.3
			C30,26.2,32.8,23.7,34.6,23.3z M63.4,19.7c-1.2-2.1-4.7-2.6-6.5-2.3l0.5,2.1c1.8-0.5,5.4,0.2,6.5,2.3c0.2,0.4,0.4,0.7,0.5,1.1
			C64.1,21.4,63.7,20.4,63.4,19.7L63.4,19.7z M43.9,57.1c-9.3-10.5-15.6-19.8-17.6-25.5c0.4,4,3,11.4,13.2,23.4
			C41.4,56.5,43,57.2,43.9,57.1z M68.1,47.4C70.9,32,69.7,24.2,68,20.5c1.1,5.8,0.2,17-2.6,30.7C66.2,51.1,67.3,49.7,68.1,47.4z"/>
		<path class="st0" d="M64.1,62c1.2-4.4,0.5-7.2,1.2-10.5c-0.9,1.1-1.9,1.9-3,2.6c-0.5,2.3-1.1,4.7-1.8,7.2
			c-0.5,1.9-1.8,3.2-3.2,3.5c-1.6,0.4-3.2-0.2-4.6-1.6c-1.9-1.9-3.5-3.7-5.1-5.4c-1.2-0.2-2.6-0.4-3.9-0.9c2.3,2.6,3.2,5.4,6.3,8.6
			C55,70.4,62.3,68.5,64.1,62L64.1,62z"/>
		<path class="st0" d="M64.8,62.3c1.6-5.6,2.6-10.5,3.3-14.9c-0.7,1.4-1.8,2.8-2.8,3.9c-0.7,3.3-1.6,6.9-2.6,10.5
			c-1.4,5.4-7.6,7-11.6,3c-2.6-2.6-5.1-5.3-7.4-7.9c-1.6-0.5-3-1.2-4.4-1.9c2.8,3.3,6.1,7.2,10.4,11.2C55,71.5,62.9,69.4,64.8,62.3
			L64.8,62.3z"/>
	</g>
</g>
</svg>
