<?xml version="1.0" encoding="utf-8"?>
<!-- Generator: Adobe Illustrator 23.0.1, SVG Export Plug-In . SVG Version: 6.00 Build 0)  -->
<svg version="1.1" id="Layer_1" xmlns="http://www.w3.org/2000/svg" xmlns:xlink="http://www.w3.org/1999/xlink" x="0px" y="0px"
	 viewBox="0 0 25 26" style="enable-background:new 0 0 25 26;" xml:space="preserve">
<style type="text/css">
	.st0{fill:#1C5FB8;}
</style>
<g>
	<g>
		<g>
			<g>
				<g>
					<g>
						<path class="st0" d="M24.7,4.9c-0.9,0.4-1.9,0.7-2.9,0.8c1-0.7,1.9-1.7,2.2-2.9c-1,0.6-2.1,1-3.2,1.3c-0.9-1-2.2-1.7-3.7-1.7
							c-2.8,0-5.1,2.4-5.1,5.3c0,0.4,0,0.8,0.1,1.2C8,8.7,4.2,6.6,1.7,3.4C1.3,4.2,1,5.1,1,6c0,1.8,0.9,3.5,2.3,4.4
							c-0.8,0-1.6-0.3-2.3-0.7l0,0.1c0,2.6,1.7,4.7,4.1,5.2c-0.4,0.1-0.9,0.2-1.3,0.2c-0.3,0-0.6,0-1-0.1c0.6,2.1,2.5,3.6,4.7,3.7
							C5.8,20.2,3.6,21,1.2,21C0.8,21,0.4,21,0,21c2.2,1.5,4.9,2.4,7.8,2.4c9.3,0,14.4-8.1,14.4-15c0-0.2,0-0.5,0-0.7
							C23.2,6.9,24,5.9,24.7,4.9"/>
					</g>
				</g>
			</g>
		</g>
	</g>
</g>
</svg>
