<?xml version="1.0" encoding="utf-8"?>
<!-- Generator: Adobe Illustrator 23.0.1, SVG Export Plug-In . SVG Version: 6.00 Build 0)  -->
<svg version="1.1" id="Layer_1" xmlns="http://www.w3.org/2000/svg" xmlns:xlink="http://www.w3.org/1999/xlink" x="0px" y="0px"
	 viewBox="0 0 203 32" style="enable-background:new 0 0 203 32;" xml:space="preserve">
<style type="text/css">
	.st0{fill:#1C5FB8;}
	.st1{fill:#EEF9FA;}
</style>
<g>
	<g>
		<g>
			<path class="st0" d="M10.2,2.9c0.1-0.7-0.1-1.1-0.5-1.2C8.9,1.5,8.1,1.8,8.1,1.8L6.9,3.1c0,0,1.4,1,2.1,1.2
				C9.4,4.4,10,3.5,10.2,2.9L10.2,2.9z"/>
			<path class="st0" d="M10.1,3.5c0-0.2,0.1-0.4,0.1-0.6c-0.3,0.7-0.6,1-1,0.9C8.4,3.6,7.8,2.9,7.8,2.9L6.9,3.1l0.6,1
				c0,0,0.6,0.7,1.3,0.8C9.4,5.1,9.8,4.6,10.1,3.5z"/>
			<path class="st1" d="M13.4,24.7c0.8,0.2,2.5,0.2,4.4-1.6c2.3-3,6.2-9.5,6.7-12.9c0-0.2,0-0.3,0-0.5c-0.1-2.6-2.6-4.5-4.4-5
				l-0.3,1.1c2.4,1.7,2.7,2.8,2.3,4.6C21.9,12.4,20.1,17,13.4,24.7L13.4,24.7z M5.4,22.8c-0.8-0.2-2.4-0.9-3.2-3.5
				C1.5,15.6,0.8,8,1.8,4.7C1.9,4.6,1.9,4.4,2,4.3C3.2,2,6.3,1.4,8.1,1.8L7.8,2.9C4.9,3.3,4.2,4.2,3.8,6C3.2,7.9,2.8,12.8,5.4,22.8z
				"/>
			<path class="st0" d="M19.9,5.8L19.6,7c1,0.2,2.5,1.5,2.6,2.8c0,0.2,0,0.4,0,0.7c0.3-0.8,0.3-1.5,0.3-1.8
				C22.4,7.3,20.9,6.1,19.9,5.8z M4.3,4.2c0.6-1.1,2.5-1.5,3.5-1.3L7.6,4.1c-1-0.2-2.9,0.2-3.5,1.3C4,5.6,3.9,5.8,3.8,6
				C3.9,5.2,4.1,4.6,4.3,4.2L4.3,4.2z M15.5,24.2c4.8-5.8,8.1-10.9,9-14c-0.1,2.2-1.5,6.2-6.7,12.9C16.8,24,16,24.4,15.5,24.2z
				 M2.2,19.3C0.4,11,0.9,6.7,1.8,4.7c-0.5,3.2,0.2,9.3,2,16.7C3.3,21.3,2.7,20.6,2.2,19.3z"/>
			<path class="st0" d="M4.7,27.2c-0.7-2.4-0.4-3.9-0.9-5.7c0.5,0.5,1.1,1,1.6,1.4c0.3,1.2,0.7,2.5,1.1,3.9c0.3,1,1,1.7,1.8,1.9
				s1.7-0.1,2.4-0.9c1-1,1.9-2,2.7-3c0.7-0.1,1.4-0.3,2.1-0.5c-1.2,1.4-1.6,2.9-3.3,4.7C9.7,31.7,5.7,30.7,4.7,27.2L4.7,27.2z"/>
			<path class="st0" d="M4.3,27.4c-0.9-3-1.6-5.7-2.1-8c0.4,0.8,1,1.5,1.6,2.1c0.5,1.8,1,3.7,1.6,5.7c0.9,3,4.2,3.8,6.3,1.5
				c1.4-1.5,2.7-3,3.9-4.4c0.8-0.3,1.6-0.7,2.3-1.1c-1.5,1.9-3.2,3.9-5.4,6.2C9.7,32.3,5.5,31.2,4.3,27.4L4.3,27.4z"/>
		</g>
		<path class="st0" d="M31.3,1.4c-0.1-0.7,0-1.2,0.4-1.3c0.7-0.2,1.6,0,1.6,0l1.3,1.2c0,0-1.4,1.2-2.1,1.4C32.2,2.9,31.5,2,31.3,1.4
			L31.3,1.4z"/>
		<path class="st0" d="M31.4,2.1c-0.1-0.2-0.1-0.4-0.2-0.6c0.3,0.7,0.7,0.9,1.2,0.8c0.7-0.2,1.3-1,1.3-1l1,0.1l-0.6,1.1
			c0,0-0.6,0.8-1.3,1C32.3,3.6,31.8,3.1,31.4,2.1z"/>
		<g>
			<path class="st1" d="M28.2,25.5c-0.8,0.2-2.7,0.3-4.7-1.6c-2.5-3.1-6.9-9.8-7.5-13.3c0-0.2,0-0.4,0-0.5c0-2.7,2.6-4.8,4.5-5.3
				l0.3,1.1c-2.5,1.8-2.7,3-2.2,4.9C18.9,12.8,20.8,17.5,28.2,25.5L28.2,25.5z M36.6,23.3c0.8-0.2,2.5-1,3.3-3.7
				c0.6-4,1.1-11.9-0.1-15.3c-0.1-0.2-0.2-0.3-0.2-0.5c-1.3-2.3-4.6-2.9-6.5-2.4l0.3,1.1c3.1,0.4,3.9,1.3,4.3,3.1
				C38.4,7.7,39,12.7,36.6,23.3z"/>
			<path class="st0" d="M20.7,5.9l0.3,1.2c-1,0.3-2.6,1.6-2.6,3c0,0.2,0,0.4,0.1,0.7c-0.3-0.9-0.4-1.5-0.4-1.9
				C18.1,7.5,19.7,6.1,20.7,5.9z M37.1,3.8c-0.7-1.2-2.7-1.5-3.7-1.3l0.3,1.2c1-0.3,3.1,0.1,3.7,1.3c0.1,0.2,0.2,0.4,0.3,0.6
				C37.5,4.8,37.3,4.2,37.1,3.8L37.1,3.8z M26,25.1c-5.3-6-8.9-11.3-10-14.5c0.2,2.3,1.7,6.5,7.5,13.3C24.6,24.8,25.5,25.2,26,25.1z
				 M39.8,19.6c1.6-8.8,0.9-13.2-0.1-15.3c0.6,3.3,0.1,9.7-1.5,17.5C38.7,21.7,39.3,20.9,39.8,19.6z"/>
			<path class="st0" d="M37.5,27.9c0.7-2.5,0.3-4.1,0.7-6c-0.5,0.6-1.1,1.1-1.7,1.5c-0.3,1.3-0.6,2.7-1,4.1c-0.3,1.1-1,1.8-1.8,2
				c-0.9,0.2-1.8-0.1-2.6-0.9c-1.1-1.1-2-2.1-2.9-3.1c-0.7-0.1-1.5-0.2-2.2-0.5c1.3,1.5,1.8,3.1,3.6,4.9
				C32.3,32.7,36.5,31.6,37.5,27.9L37.5,27.9z"/>
			<path class="st0" d="M37.9,28.1c0.9-3.2,1.5-6,1.9-8.5c-0.4,0.8-1,1.6-1.6,2.2c-0.4,1.9-0.9,3.9-1.5,6c-0.8,3.1-4.3,4-6.6,1.7
				c-1.5-1.5-2.9-3-4.2-4.5c-0.9-0.3-1.7-0.7-2.5-1.1c1.6,1.9,3.5,4.1,5.9,6.4C32.3,33.3,36.8,32.1,37.9,28.1L37.9,28.1z"/>
		</g>
	</g>
	<g>
		<path class="st0" d="M56.2,23.9H45.3c0,1.7,0.5,3,1.4,4c0.9,0.9,2.1,1.4,3.7,1.4c1.7,0,3.3-0.6,4.8-1.7v2.3
			c-1.4,1-3.2,1.5-5.4,1.5c-2.2,0-3.9-0.7-5.1-2.1c-1.2-1.4-1.9-3.4-1.9-5.9c0-2.4,0.7-4.4,2-5.9c1.4-1.5,3.1-2.3,5.1-2.3
			c2,0,3.6,0.7,4.7,2c1.1,1.3,1.7,3.1,1.7,5.4V23.9z M53.6,21.8c0-1.4-0.4-2.5-1-3.3c-0.7-0.8-1.6-1.2-2.8-1.2c-1.2,0-2.2,0.4-3,1.3
			c-0.8,0.8-1.3,1.9-1.5,3.3H53.6z"/>
		<path class="st0" d="M62.5,28.8L62.5,28.8l-0.1,2.2h-2.5V8.2h2.5v10.1h0.1c1.2-2.1,3-3.1,5.3-3.1c2,0,3.5,0.7,4.7,2.1
			c1.1,1.4,1.7,3.2,1.7,5.6c0,2.6-0.6,4.7-1.9,6.2c-1.3,1.6-3,2.3-5.2,2.3C65,31.4,63.5,30.5,62.5,28.8z M62.4,22.6v2.2
			c0,1.3,0.4,2.4,1.2,3.3c0.8,0.9,1.9,1.3,3.2,1.3c1.5,0,2.7-0.6,3.5-1.7c0.9-1.1,1.3-2.7,1.3-4.8c0-1.7-0.4-3.1-1.2-4
			c-0.8-1-1.9-1.5-3.2-1.5c-1.4,0-2.6,0.5-3.5,1.5C62.8,19.8,62.4,21.1,62.4,22.6z"/>
		<path class="st0" d="M81,22.9v8.2h-2.5V9.4h5.9c2.3,0,4.1,0.6,5.4,1.7c1.3,1.1,1.9,2.7,1.9,4.8c0,2.1-0.7,3.7-2.1,5
			c-1.4,1.3-3.3,2-5.7,2H81z M81,11.7v8.9h2.7c1.8,0,3.1-0.4,4-1.2c0.9-0.8,1.4-1.9,1.4-3.4c0-2.9-1.7-4.3-5.1-4.3H81z"/>
		<path class="st0" d="M108.2,31.1h-2.5v-8.9c0-3.2-1.2-4.8-3.6-4.8c-1.2,0-2.2,0.5-3,1.4s-1.2,2.1-1.2,3.6v8.7h-2.5V8.2h2.5v10h0.1
			c1.2-2,2.9-2.9,5.1-2.9c3.5,0,5.2,2.1,5.2,6.3V31.1z"/>
		<path class="st0" d="M123.9,31.1h-2.5v-2.4h-0.1c-1.1,1.9-2.7,2.8-4.8,2.8c-1.5,0-2.7-0.4-3.6-1.2c-0.9-0.8-1.3-1.9-1.3-3.2
			c0-2.9,1.7-4.6,5.1-5l4.6-0.6c0-2.6-1.1-3.9-3.2-3.9c-1.9,0-3.5,0.6-5,1.9v-2.5c1.5-1,3.3-1.4,5.3-1.4c3.6,0,5.4,1.9,5.4,5.8V31.1
			z M121.5,23.2l-3.7,0.5c-1.1,0.2-2,0.4-2.6,0.9s-0.9,1.1-0.9,2.2c0,0.8,0.3,1.4,0.8,1.8c0.5,0.5,1.3,0.7,2.1,0.7
			c1.2,0,2.2-0.4,3-1.3c0.8-0.9,1.2-1.9,1.2-3.3V23.2z"/>
		<path class="st0" d="M136.6,18.1c-0.4-0.3-1.1-0.5-1.9-0.5c-1.1,0-1.9,0.5-2.6,1.5c-0.7,1-1.1,2.4-1.1,4.1v7.9h-2.5V15.6h2.5v3.2
			h0.1c0.4-1.1,0.9-1.9,1.6-2.5c0.7-0.6,1.5-0.9,2.4-0.9c0.6,0,1.1,0.1,1.5,0.2V18.1z"/>
		<path class="st0" d="M161.3,31.1h-2.5v-8.9c0-1.7-0.3-2.9-0.8-3.7c-0.5-0.8-1.4-1.1-2.7-1.1c-1.1,0-2,0.5-2.7,1.4
			c-0.7,1-1.1,2.1-1.1,3.5v8.8h-2.5v-9.2c0-3-1.2-4.6-3.5-4.6c-1.1,0-2,0.5-2.7,1.4c-0.7,0.9-1.1,2.1-1.1,3.6v8.8h-2.5V15.6h2.5V18
			h0.1c1.1-1.9,2.7-2.8,4.8-2.8c1.1,0,2,0.3,2.8,0.9c0.8,0.6,1.3,1.4,1.6,2.3c1.1-2.1,2.9-3.2,5.1-3.2c3.4,0,5.1,2.1,5.1,6.3V31.1z"
			/>
		<path class="st0" d="M177,31.1h-2.5v-2.4h-0.1c-1.1,1.9-2.7,2.8-4.8,2.8c-1.5,0-2.7-0.4-3.6-1.2c-0.9-0.8-1.3-1.9-1.3-3.2
			c0-2.9,1.7-4.6,5.1-5l4.6-0.6c0-2.6-1.1-3.9-3.2-3.9c-1.9,0-3.5,0.6-5,1.9v-2.5c1.5-1,3.3-1.4,5.3-1.4c3.6,0,5.4,1.9,5.4,5.8V31.1
			z M174.5,23.2l-3.7,0.5c-1.1,0.2-2,0.4-2.6,0.9c-0.6,0.4-0.9,1.1-0.9,2.2c0,0.8,0.3,1.4,0.8,1.8c0.5,0.5,1.3,0.7,2.1,0.7
			c1.2,0,2.2-0.4,3-1.3c0.8-0.9,1.2-1.9,1.2-3.3V23.2z"/>
	</g>
	<g>
		<path class="st0" d="M203,29.4c-0.2-1.1-1-2-2.2-2.2v0c-0.2-2.5-2.4-4.4-5-4.2c-2.4,0.2-4.2,2.2-4.2,4.6c0,2.2-1.8,3.9-3.9,3.9
			c-2.2,0-3.9-1.8-3.9-3.9v-7.9c3.4-0.2,6-3,6-6.4V8.1c0-1.2-0.9-2.2-2.1-2.4V5.5c0-0.3-0.2-0.5-0.5-0.5h-0.5c-0.6,0-1,0.4-1.1,1
			c0,0.6,0.4,1,1,1.1c0,0,0.1,0,0.1,0h0.5c0.3,0,0.5-0.2,0.5-0.5V6.4c0.8,0.2,1.4,0.9,1.4,1.7v5.3c0,3.1-2.6,5.7-5.7,5.7
			c-3.1,0-5.7-2.6-5.7-5.7V8.1c0-0.8,0.6-1.5,1.4-1.7v0.2c0,0.3,0.2,0.5,0.5,0.5h0.5c0.6,0,1-0.4,1.1-1c0-0.6-0.4-1-1-1.1
			c0,0-0.1,0-0.1,0h-0.5c-0.3,0-0.5,0.2-0.5,0.5v0.2c-1.2,0.2-2.1,1.2-2.1,2.4v5.3c0,3.4,2.7,6.2,6,6.4v7.9c0,2.5,2.1,4.6,4.6,4.6
			s4.6-2.1,4.6-4.6c0-2.2,1.8-3.9,4-3.9c2,0,3.7,1.6,3.9,3.6c-1.4,0.2-2.3,1.4-2.2,2.8c0.2,1.4,1.4,2.3,2.8,2.2
			C202.2,32.1,203.2,30.8,203,29.4z M200.5,31.2c-0.8,0-1.4-0.6-1.4-1.4s0.6-1.4,1.4-1.4s1.4,0.6,1.4,1.4S201.3,31.2,200.5,31.2z"/>
	</g>
</g>
</svg>
