<?xml version="1.0" encoding="utf-8"?>
<!-- Generator: Adobe Illustrator 23.0.1, SVG Export Plug-In . SVG Version: 6.00 Build 0)  -->
<svg version="1.1" id="Layer_1" xmlns="http://www.w3.org/2000/svg" xmlns:xlink="http://www.w3.org/1999/xlink" x="0px" y="0px"
	 viewBox="0 0 25 26" style="enable-background:new 0 0 25 26;" xml:space="preserve">
<style type="text/css">
	.st0{fill:#1C5FB8;}
	.st1{fill:#FFFFFF;}
</style>
<g>
	<g>
		<g>
			<g>
				<g>
					<path class="st0" d="M24.5,6.9c-0.3-1.1-1.1-1.9-2.2-2.2c-2-0.5-9.8-0.5-9.8-0.5s-7.8,0-9.8,0.5C1.7,5,0.8,5.9,0.5,6.9
						C0,8.9,0,13,0,13s0,4.1,0.5,6c0.3,1.1,1.1,1.9,2.2,2.2c2,0.5,9.8,0.5,9.8,0.5s7.8,0,9.8-0.5c1.1-0.3,1.9-1.1,2.2-2.2
						c0.5-2,0.5-6,0.5-6S25,8.9,24.5,6.9z"/>
					<path class="st1" d="M10,16.7l6.5-3.7L10,9.2V16.7z"/>
				</g>
			</g>
		</g>
	</g>
</g>
</svg>
