<?xml version="1.0" encoding="utf-8"?>
<!-- Generator: Adobe Illustrator 23.0.1, SVG Export Plug-In . SVG Version: 6.00 Build 0)  -->
<svg version="1.1" id="Layer_1" xmlns="http://www.w3.org/2000/svg" xmlns:xlink="http://www.w3.org/1999/xlink" x="0px" y="0px"
	 viewBox="0 0 223.5 92.3" style="enable-background:new 0 0 223.5 92.3;" xml:space="preserve">
<style type="text/css">
	.st0{fill:#1C5FB8;}
</style>
<g id="Group_5073" transform="translate(47.314 -235.656)">
	<path id="Path_3206" class="st0" d="M-10.1,303.1c-0.5,1.6-1,3.2-1.4,4.8c-0.1,0.5,0.5,1.1,0.8,1.7c0.2,0.4,0.7,0.8,0.6,1
		c-0.2,0.4-0.7,0.9-1,0.9c-1.3,0-1.7,0.6-1.9,1.7c-0.5,3.3-1,6.6-1.5,10c-0.2,1.3-0.4,2.5-1.8,3c-2.1,0.7-3,0.2-3.7-1.9
		c-1.1-3.4-0.4-6.8,0.3-10.1c0.1-0.5,0.3-1,0.4-1.5c0.5-2.2,0.3-2.3-2-2.5c-3.6-0.4-7.2-1.2-10.8-1.7c-1.6-0.2-3.1-0.4-4.7-0.5
		c-2.8-0.2-5.6-0.1-8.3-0.5c-1.3-0.1-2.3-1.3-2.2-2.6c0-0.1,0-0.2,0-0.3c0.4-1.5,1.6-1.2,2.8-1.3c2.1-0.1,4.3-0.5,6.4-0.8
		c2.6-0.4,5.2-0.8,7.8-1.4c4.4-1.1,8.8-2.3,13.2-3.5c2.1-0.6,1.8-2.7,2.3-4.3c0.2-1,0.4-2.1,0.4-3.2c1-6.2,2-12.4,2.8-18.6
		c0.1-1.6-0.3-3.2-1.1-4.5c-2.5-4.1-3.7-8.9-3.2-13.7c0.5-3.4,2-6.5,4.3-9c2.4-2.8,5.4-5,8.9-6.3c3.2-1.1,6.5-1.8,9.8-2.1
		c2.8-0.2,5.7-0.3,8.5-0.2c5.8-0.1,11.6,0.8,17.1,2.7c2.5,0.9,5,1.6,7.4,2.6c2.3,0.9,4.4,2.4,6,4.3c0.6,0.7,1.4,1.3,2,2.1
		c1.5,1.8,2.3,4.1,2.3,6.4c0.4,9.6-2.3,18.1-8.9,25c-3.5,3.6-7.8,6.2-12.5,7.7c-2.9,1.1-5.7,2.4-8.5,3.9c-0.5,0.3-0.8,1.2-1.1,1.8
		c0.9,0.3,1.8,1.1,2.6,0.9c3-0.5,6-1.2,8.9-1.9c2.7-0.6,5.3-1.5,8-1.9c3.5-0.5,7-0.8,10.4,0.3c1.8,0.7,3.7,0.6,5.4-0.2
		c2.8-1.3,5.8-2.7,8.8-3c2.5-0.3,4.9-1.2,7.1-2.5c4.9-2.6,10.2-4.6,15.9-4.4c3.7,0.2,7.5,0.6,10.5,3c2.9,2.3,3.9,5.5,3.8,9.1
		c-0.2,3.7-1.1,7.2-2.8,10.5c-0.9,1.7-1.9,3.3-3.1,4.9c-0.4,0.7-0.7,1.5-1.1,2.2l0.3,0.4c2-0.3,4-0.5,6-0.9
		c5.9-1.3,11.7-2.9,17.7-3.9c6.8-1.2,13.8-2,20.6-3c4.2-0.6,8.3-1.4,12.5-1.9c2.6-0.3,5.3-0.3,7.8-0.7c5-0.9,10.1-0.2,15-2.1
		c0.9-0.3,2.1-0.4,2.4,0.9c0.2,1.2-0.7,1.9-1.8,2c-6.7,0.8-13.3,1.4-20,2.3c-6.4,0.8-12.7,1.6-19.1,2.6c-7.8,1.2-15.6,2.3-23.4,3.8
		c-4.8,0.9-9.5,2.1-14.1,3.8c-3.1,1.2-6.3,2-9.1,4.2c-1.7,1.4-4.2,1.8-6.4,2.5c-1,0.4-2.2-0.1-2.6-1.1c0,0,0-0.1,0-0.1
		c-0.5-1.1-0.2-2.4,0.9-3c1.4-0.9,2.9-1.7,4.2-2.6c4.4-3.4,7.9-8,10.1-13.1c1.6-3.5,2.8-7.2,1.5-11.2c-1-3-3.5-3.8-6.3-4.2
		c-2.1-0.4-4.2-0.6-6.3-0.7c-4.3-0.1-8.5,1.4-11.8,4.3c-0.8,0.6-1.1,1.6-0.9,2.5c0.1,1.8,0.1,3.7-0.1,5.5c0,0.9,0,1.8-0.2,2.7
		c-0.8,4.1-2.7,7.8-5.6,10.9c-2.1,2.2-4,2.3-6.6,0.7c-0.9-0.6-1.5-0.5-2,0.6c-0.7,1.6-1.4,3.2-2.2,4.8c-0.9,1.9-4.6,3.1-7.7,2.2
		c-2.2-0.8-3.8-2.8-4-5.1c-0.9-5.8,0.2-11.1,3.9-15.8c1.5-1.9,1.2-2.9-1.2-3.2c-2.1-0.3-4.2-0.3-6.2-0.1c-1.6,0.2-1.5,1-0.9,2.4
		c1,1.8,1.6,3.8,1.9,5.9c0.3,2.3,0.1,4.6-0.6,6.8c-0.8,2-1.9,3.8-3.3,5.5c-2,2.6-4.8,3.9-7.9,4.7c-2.1,0.6-4.4,0.3-6.3-0.8
		c-1.2-0.7-2.7-0.8-3.9-0.2c-1.7,0.6-3.4,1.2-5.2,1.7c-1.6,0.2-2.7,1.6-2.7,3.2c0,1.1-0.2,2.3-0.4,3.4c-0.2,1.6-1.1,2.3-3,2.4
		c-1.5,0.1-3-0.5-3.1-2.1c-0.1-4.4-2.2-7.6-4.8-10.9c-2.5-3.1-2-6.3,1-8.9c2.9-2.5,6.1-4.8,9.1-7.1c1.1-0.8,2.3-3.5,1.8-4.8
		c-0.2-0.4-0.5-0.7-0.9-0.8c-1.4-0.3-6.6,2-7.1,3.1c-0.8,1.7-1.4,3.5-2.3,5.1c-1.4,2.6-2.6,5.5-5.9,6.6c-1.8,0.6-2.6,0.2-3.1-1.6
		c-0.3-1.2-0.8-2.4-1.2-3.6L-10.1,303.1z M-10.9,257.4c0.2-1.3,0.4-2.1,0.5-2.9c0.1-0.9,0.3-1.8,0.5-2.7c0.3-0.6,0.8-1.1,1.5-1.3
		c0.7,0.1,1.3,0.5,1.6,1.1c0.4,1.3,0.6,2.6,0.6,4c0,3.3-0.3,6.6-0.4,9.9c-0.1,1.8,0.8,3,2.2,2.9c2-0.2,1.7,0.9,1.8,2.1
		c0.1,1.1,0.2,2.5,0.9,3.1c2.4,2.2,5.1,4.2,7.5,6.3c1.2,1,1.9,0.7,2.5-0.4c0.3-0.4,0.6-0.9,0.8-1.3c1.7-5.6,3.8-11.1,4.2-17
		c0.2-4,0.8-7.9,1.2-11.9c0.1-1.3,0.3-2.7,1.8-2.9c1.6-0.3,2.3,1,2.7,2.3c0.2,0.5,0.3,1.1,0.3,1.7c-0.2,2.3-0.5,4.5-0.6,6.8
		c-0.3,9.3-0.2,18.7-1.4,28c-0.3,2.3,0.1,2.6,2.3,1.8c3.6-1.3,7.2-2.7,10.8-4.2c4.6-2.1,8.6-5.3,11.7-9.3c0.8-0.8,1.4-1.7,1.8-2.7
		c1.2-3.9,2.5-7.8,3.4-11.8c0.4-2,0.4-4,0-5.9c-1.1-5.6-5.6-8.1-10-10.3c-4.3-2.1-8.9-3.4-13.7-3.9c-3.8-0.5-7.6-1.6-11.5-0.1
		c-0.4,0.1-0.8,0.2-1.2,0.1c-4-0.5-7.8-0.5-11.3,1.8c-1.9,1.1-3.8,2.3-5.6,3.6c-2.8,2.4-4.8,5.5-5.7,9.1
		C-12.1,254.8-11.8,256.4-10.9,257.4L-10.9,257.4z M36.1,304.4c0.2-6.4-3.5-9.2-7.8-7.3c-2,0.8-2.4,2.2-1.6,4.1
		c0.5,1.2,1.3,2.5,1.1,3.6c-0.6,2.1-1.3,4.2-2.2,6.2c-0.3,0.8-0.9,1.9-0.5,2.4c0.4,0.5,1.5,0.6,2.4,0.7c0.5,0,1-0.1,1.5-0.3
		C33.5,311.7,35.7,308,36.1,304.4z M-3.6,277.6c-0.4,1.9-0.8,3.4-1.1,5c-0.6,3.3-1.4,6.6-1.8,9.9c-0.3,2.2,0.3,2.4,2.3,1.6
		c0.5-0.2,1-0.3,1.5-0.4c3-0.5,5.8-1.3,6.5-4.9c0.2-0.5,0.5-1,0.9-1.4c0.7-0.7,0.8-1.8,0.1-2.6c-0.1-0.1-0.2-0.2-0.3-0.3
		C2,282.3-0.5,280.1-3.6,277.6z M12.8,314.5c3.3-0.4,5.8-1.1,5.4-5.1c-0.2-2,0.7-4.1,1.2-6.1c0.4-0.9,0.9-1.9,1.4-2.7
		c0.5-0.7,0.2-1.7-0.5-2.2c-0.3-0.2-0.6-0.3-0.9-0.2c-2.2-0.1-4.2,1.4-4.9,3.5c-0.8,3.7-1.6,7.4-2.3,11.2
		C12,313.4,12.6,314,12.8,314.5z M53.8,304.1c-0.5-1.7-0.9-3.8-1.6-5.7c-0.4-1.2-1.4-1.3-2.3-0.5c-3.4,3.7-4.2,9.1-2.1,13.6
		c0.5,0.9,1.7,1.3,2.6,0.7c0.1-0.1,0.2-0.1,0.3-0.2c0.9-0.8,1.6-1.8,2-2.9C53.2,307.5,53.6,305.8,53.8,304.1L53.8,304.1z
		 M-18.8,301.1c-0.2,0-0.3,0.1-0.5,0.1c-3.3,0.9-6.5,1.8-9.8,2.9c-0.6,0.2-1.1,0.9-1.6,1.4c0.5,0.4,1,1,1.6,1.2
		c3,0.8,5.9,1.5,8.9,2.1c0.7,0,1.3-0.4,1.6-1c0.6-1.5,0.8-3.2,1.3-4.8C-16.8,301.5-17.8,301.3-18.8,301.1L-18.8,301.1z M9.6,303.3
		L9.1,303c-1.6,1-3.2,2.1-4.7,3.3c-2.6,2.4-2.7,4.8-0.4,7.3c0.6,0.6,1.5,1,2.4,1c0.5,0,1.1-1,1.3-1.7c0.4-1.5,0.8-3.1,1-4.6
		C9,306.7,9.3,305,9.6,303.3z M67.2,294.9l-0.6-1.5c-0.6,0.2-1.1,0.4-1.6,0.7c-2.9,2.3-3.3,5.8-4.1,9.1c-0.1,0.6,0.5,1.4,0.8,2.1
		c0.7-0.4,1.5-0.6,1.9-1.1C65.8,301.5,66.2,298.2,67.2,294.9L67.2,294.9z M13,285.6c0.9-4.6,1.2-9.2,1-13.9
		c-0.6,0.4-0.9,0.5-0.9,0.6c-1.2,3.1-2.3,6.3-3.4,9.5c-0.1,0.6,0.1,1.1,0.5,1.5C11.1,284.2,12.1,284.9,13,285.6L13,285.6z
		 M61.2,290.7c-4.1-0.1-6.2,2.7-4.9,6.3c0.1,0.3,0.2,0.6,0.3,1c0.3,1.2,1,1.2,1.7,0.4c0.4-0.5,0.7-1,1-1.6c0.8-1.5,1.5-2.9,2.3-4.4
		c0.2-0.3,0.5-0.8,0.4-1C61.9,291,61.4,290.8,61.2,290.7L61.2,290.7z M-4.7,302.9l3.5-4.9c-2.6-1.1-4.1-1-4.9,0.2
		C-6.8,299.2-6.3,301.2-4.7,302.9z M6.2,290.9c2.2,0.1,4.1-0.8,3.8-1.7c-0.3-0.8-1.4-1.9-1.9-1.8C6.3,287.7,6.4,289.4,6.2,290.9z"/>
	<path id="Path_3207" class="st0" d="M77.5,263.6c0.7-0.8,1.4-1.5,2.2-2.2c1.4-0.9,2.8-1.7,4.2-2.5c0.5-0.2,1-0.3,1.5-0.4
		c0,0.5,0,0.9-0.1,1.4c-0.4,0.9-1,1.8-1.5,2.7c-0.7,1.5-1.4,2.9-1,4.7c0.2,0.6-0.4,1.4-0.6,2.2c-0.7-0.5-1.3-1-1.8-1.5
		c-0.7-0.9-1.3-1.8-1.9-2.8C78.2,264.9,78,264.4,77.5,263.6z"/>
</g>
</svg>
