<?xml version="1.0" encoding="utf-8"?>
<!-- Generator: Adobe Illustrator 23.0.1, SVG Export Plug-In . SVG Version: 6.00 Build 0)  -->
<svg version="1.1" id="Capa_1" xmlns="http://www.w3.org/2000/svg" xmlns:xlink="http://www.w3.org/1999/xlink" x="0px" y="0px"
	 viewBox="0 0 512 512" style="enable-background:new 0 0 512 512;" xml:space="preserve">
<style type="text/css">
	.st0{fill:#CCE7F7;}
	.st1{fill:#1C5FB8;}
</style>
<path class="st0" d="M256,0L256,0l-20,256l20,256l0,0c141.4,0,256-114.6,256-256l0,0C512,114.6,397.4,0,256,0z"/>
<path class="st1" d="M256,0C114.6,0,0,114.6,0,256l0,0c0,141.4,114.6,256,256,256l0,0V0L256,0z"/>
<polygon class="st1" points="307.3,204.7 307.3,110.9 256,110.9 236,255.2 256,401.1 307.3,401.1 307.3,307.3 401.1,307.3 
	401.1,204.7 "/>
<polygon class="st0" points="204.7,110.9 204.7,204.7 110.9,204.7 110.9,307.3 204.7,307.3 204.7,401.1 256,401.1 256,110.9 "/>
</svg>
