<svg xmlns="http://www.w3.org/2000/svg" width="22" height="22" viewBox="0 0 22 22">
    <g fill="none" fill-rule="evenodd">
        <g fill="#0F5569" fill-rule="nonzero">
            <g>
                <g>
                    <g>
                        <g>
                            <path d="M11 0C4.934 0 0 4.934 0 11s4.934 11 11 11 11-4.935 11-11S17.066 0 11 0zm0 20.296c-5.125 0-9.296-4.17-9.296-9.296 0-5.126 4.17-9.296 9.296-9.296 5.126 0 9.296 4.17 9.296 9.296 0 5.126-4.17 9.296-9.296 9.296z" transform="translate(-512 -6208) translate(205 5638) translate(0 569) translate(307 1) rotate(90 11 11)"/>
                            <path d="M15.865 12.176l-4.26-4.26c-.332-.331-.87-.331-1.201 0l-4.26 4.26c-.274.318-.274.79 0 1.108.305.357.844.4 1.2.093L11 9.722l3.664 3.655c.332.33.869.33 1.201 0 .33-.332.33-.869 0-1.201z" transform="translate(-512 -6208) translate(205 5638) translate(0 569) translate(307 1) rotate(90 11 11)"/>
                        </g>
                    </g>
                </g>
            </g>
        </g>
    </g>
</svg>
