<?xml version="1.0" encoding="utf-8"?>
<!-- Generator: Adobe Illustrator 23.0.1, SVG Export Plug-In . SVG Version: 6.00 Build 0)  -->
<svg version="1.1" id="Layer_1" xmlns="http://www.w3.org/2000/svg" xmlns:xlink="http://www.w3.org/1999/xlink" x="0px" y="0px"
	 viewBox="0 0 69.4 78.1" style="enable-background:new 0 0 69.4 78.1;" xml:space="preserve">
<style type="text/css">
	.st0{fill:#3BA73A;}
	.st1{fill:#FB0601;}
</style>
<g>
	<g>
		<rect x="7.5" y="7.7" class="st0" width="15.4" height="15.4"/>
		<rect x="26.1" y="7.7" class="st0" width="15.4" height="15.4"/>
		<rect x="45.2" y="7.7" class="st0" width="15.4" height="15.4"/>
		<rect x="7.5" y="26.3" class="st0" width="15.4" height="15.4"/>
		<rect x="26.1" y="26.3" class="st0" width="15.4" height="15.4"/>
		<rect x="7.5" y="45.6" class="st0" width="15.4" height="15.4"/>
		<rect x="45.2" y="26.3" class="st0" width="15.4" height="15.4"/>
		<rect x="26.4" y="45.6" class="st0" width="15.4" height="15.4"/>
		<rect x="45.6" y="45.6" class="st0" width="15.4" height="15.4"/>
	</g>
	<g>
		<g>
			<path class="st1" d="M11.1,74.7c0,0-0.2,0-0.7-0.1c-0.5-0.1-0.9-0.2-1.3-0.4C8.7,74,8.3,73.7,8,73.5l0.9-1.6
				c0.4,0.3,0.8,0.6,1.3,0.7c0.5,0.2,1,0.3,1.6,0.3c0.6,0,1.1-0.1,1.4-0.3s0.5-0.5,0.5-0.9v0c0-0.3-0.1-0.5-0.2-0.6
				c-0.2-0.2-0.4-0.3-0.6-0.3c-0.2-0.1-0.6-0.1-0.9-0.2c0,0,0,0,0,0s0,0,0,0l-0.2,0c-0.7-0.1-1.2-0.2-1.7-0.4S9.3,69.6,9,69.2
				c-0.3-0.4-0.5-1-0.5-1.7v0c0-0.7,0.1-1.2,0.4-1.7c0.3-0.5,0.7-0.8,1.3-1.1c0.6-0.2,1.2-0.4,2-0.4c0.4,0,0.7,0,1.1,0.1
				s0.7,0.2,1.1,0.4s0.7,0.3,1,0.6l-0.8,1.6c-0.4-0.3-0.8-0.5-1.2-0.6c-0.4-0.1-0.8-0.2-1.2-0.2c-0.6,0-1,0.1-1.4,0.3
				c-0.3,0.2-0.5,0.5-0.5,0.8v0c0,0.3,0.1,0.5,0.3,0.7c0.2,0.2,0.4,0.3,0.6,0.4c0.2,0.1,0.6,0.2,1,0.3c0,0,0,0,0.1,0c0,0,0,0,0.1,0
				c0,0,0.1,0,0.1,0c0,0,0.1,0,0.1,0c0.6,0.1,1.2,0.3,1.6,0.5c0.4,0.2,0.8,0.5,1.1,0.9c0.3,0.4,0.4,0.9,0.4,1.6v0
				c0,0.6-0.2,1.2-0.5,1.7c-0.3,0.5-0.7,0.8-1.3,1c-0.6,0.2-1.3,0.4-2.1,0.4C11.3,74.7,11.1,74.7,11.1,74.7z"/>
			<path class="st1" d="M19,74.3c-0.6-0.3-1-0.7-1.3-1.3s-0.5-1.2-0.5-2v-2.9c0-0.7,0.2-1.4,0.5-2c0.3-0.6,0.7-1,1.3-1.3
				s1.2-0.5,1.9-0.5c0.7,0,1.4,0.2,1.9,0.5s1,0.7,1.3,1.3c0.3,0.6,0.5,1.2,0.5,2V71c0,0.7-0.2,1.4-0.5,2s-0.7,1-1.3,1.3
				c-0.6,0.3-1.2,0.5-1.9,0.5C20.2,74.7,19.5,74.6,19,74.3z M21.8,72.6c0.3-0.1,0.5-0.4,0.6-0.6c0.1-0.3,0.2-0.6,0.2-0.9v-3
				c0-0.4-0.1-0.7-0.2-0.9c-0.1-0.3-0.3-0.5-0.6-0.6c-0.3-0.1-0.6-0.2-0.9-0.2s-0.6,0.1-0.9,0.2c-0.3,0.1-0.5,0.4-0.6,0.6
				s-0.2,0.6-0.2,0.9v3c0,0.4,0.1,0.7,0.2,0.9s0.3,0.5,0.6,0.6c0.3,0.1,0.6,0.2,0.9,0.2S21.5,72.7,21.8,72.6z M20.6,71.8l1-1.3
				l3.9,3l-1,1.3L20.6,71.8z"/>
			<path class="st1" d="M28.3,74.3c-0.6-0.3-1-0.7-1.3-1.3s-0.4-1.2-0.4-2v-6.4h1.9V71c0,0.6,0.2,1,0.5,1.3c0.3,0.3,0.7,0.5,1.3,0.5
				c0.6,0,1-0.2,1.3-0.5c0.3-0.3,0.5-0.8,0.5-1.3v-6.5H34V71c0,0.8-0.1,1.5-0.4,2s-0.7,1-1.3,1.3c-0.6,0.3-1.2,0.4-2,0.4
				C29.5,74.7,28.9,74.6,28.3,74.3z"/>
			<path class="st1" d="M39,64.5h1.2L44,74.6h-2l-2.4-6.9l-2.4,6.9h-2L39,64.5z M37,71.2h5.3V73H37V71.2z"/>
			<path class="st1" d="M45.3,64.5h1.9v10.1h-1.9V64.5z M46,68.7h3.5c0.2,0,0.4,0,0.5-0.1c0.1-0.1,0.3-0.2,0.3-0.4s0.1-0.4,0.1-0.6
				c0-0.2,0-0.4-0.1-0.6s-0.2-0.3-0.3-0.4c-0.1-0.1-0.3-0.1-0.5-0.1H46v-1.8h3.7c0.6,0,1,0.1,1.5,0.4c0.4,0.3,0.7,0.6,1,1.1
				c0.2,0.5,0.3,1,0.3,1.6c0,0.6-0.1,1.1-0.3,1.6c-0.2,0.5-0.6,0.8-1,1.1s-0.9,0.4-1.5,0.4H46V68.7z M48.2,70.2l2-0.3l2.7,4.7h-2.3
				L48.2,70.2z"/>
			<path class="st1" d="M54.6,64.5h1.9v10.1h-1.9V64.5z M55.3,64.5h6.1v1.8h-6.1V64.5z M55.3,68.7h5.3v1.8h-5.3V68.7z M55.3,72.8
				h6.1v1.8h-6.1V72.8z"/>
		</g>
	</g>
</g>
</svg>
