<?xml version="1.0" encoding="utf-8"?>
<!-- Generator: Adobe Illustrator 23.0.1, SVG Export Plug-In . SVG Version: 6.00 Build 0)  -->
<svg version="1.1" id="Capa_1" xmlns="http://www.w3.org/2000/svg" xmlns:xlink="http://www.w3.org/1999/xlink" x="0px" y="0px"
	 viewBox="0 0 512 512" style="enable-background:new 0 0 512 512;" xml:space="preserve">
<style type="text/css">
	.st0{fill:#1C5FB8;}
</style>
<g>
	<path class="st0" d="M370.8,278.9c-3.7-3.7-9.7-3.7-13.3,0c-3.6,3.7-3.7,9.7,0,13.3l19,19c1.8,1.8,4.3,2.8,6.7,2.8s4.8-0.9,6.7-2.8
		c3.7-3.7,3.7-9.7,0-13.3L370.8,278.9z"/>
	<path class="st0" d="M364.2,200.8c2.4,0,4.8-0.9,6.7-2.8l19-19c3.7-3.7,3.7-9.7,0-13.3c-3.7-3.6-9.7-3.7-13.3,0l-19,19
		c-3.7,3.7-3.7,9.7,0,13.3C359.3,199.9,361.7,200.8,364.2,200.8L364.2,200.8z"/>
	<path class="st0" d="M399.7,229.1h-26.9c-5.2,0-9.4,4.2-9.4,9.4c0,5.2,4.2,9.4,9.4,9.4h26.9c5.2,0,9.4-4.2,9.4-9.4
		C409.1,233.3,404.9,229.1,399.7,229.1z"/>
	<path class="st0" d="M338.2,104.4c-3-1.7-6.6-1.6-9.6,0.2l-107.9,66.1h-48c-10.2-0.6-20,3-27.5,10.1c-2.8,2.6-5.2,5.7-7,8.9h-23.7
		c-15.1,0-27.3,12.3-27.3,27.3v42.9c0,15.1,12.3,27.3,27.3,27.3h23.7c3.8,6.8,9.6,12.4,16.5,16.2l-32.9,56.9
		c-1.3,2.2-1.6,4.8-0.9,7.2c0.7,2.5,2.3,4.5,4.5,5.7l41.6,23.3c1.4,0.8,3,1.2,4.6,1.2c3.3,0,6.4-1.7,8.2-4.7l46.9-81.3l102.2,60.7
		c1.5,0.9,3.1,1.3,4.8,1.3c1.6,0,3.2-0.4,4.7-1.3c3-1.7,4.8-4.8,4.8-8.2V112.6C343.1,109.2,341.2,106,338.2,104.4L338.2,104.4z
		 M114.6,268.4c-4.7,0-8.5-3.8-8.5-8.5V217c0-4.7,3.8-8.5,8.5-8.5h18.7c0,0.1,0,0.3,0,0.4v59c0,0.1,0,0.3,0,0.4H114.6z M152.1,209
		c0-5.5,2.3-10.8,6.2-14.5c3.7-3.5,8.6-5.3,13.7-5c0.2,0,42,0,42,0v99.8h-41.1c-11.6-0.8-20.7-10.2-20.7-21.4L152.1,209z
		 M168.2,375.6L143,361.5l30.2-52.2c0.2-0.3,0.3-0.6,0.5-0.9h33.4L168.2,375.6z M324.2,347.8l-91.4-54.3V185.4l91.4-56V347.8z"/>
</g>
</svg>
