<?xml version="1.0" encoding="utf-8"?>
<!-- Generator: Adobe Illustrator 23.0.1, SVG Export Plug-In . SVG Version: 6.00 Build 0)  -->
<svg version="1.1" id="Layer_1" xmlns="http://www.w3.org/2000/svg" xmlns:xlink="http://www.w3.org/1999/xlink" x="0px" y="0px"
	 viewBox="0 0 34 34" style="enable-background:new 0 0 34 34;" xml:space="preserve">
<style type="text/css">
	.st0{fill:#1C5FB8;}
</style>
<g>
	<g>
		<g>
			<g>
				<g>
					<path class="st0" d="M29,5C22.4-1.7,11.6-1.7,5,5s-6.6,17.4,0,24s17.4,6.6,24,0c3.2-3.2,5-7.5,5-12C34,12.5,32.2,8.2,29,5z
						 M25.7,23.7L25.7,23.7L25.7,23.7l-0.9,0.9c-1.1,1.1-2.7,1.6-4.3,1.2c-1.6-0.4-3-1.1-4.4-2C15,23,13.8,22.1,12.8,21
						c-1-1-1.8-2-2.6-3.1c-0.8-1.2-1.5-2.5-1.9-3.9c-0.5-1.6-0.1-3.4,1.1-4.6l1-1c0.3-0.3,0.7-0.3,1,0l0,0l3.2,3.2
						c0.3,0.3,0.3,0.7,0,1l0,0l-1.9,1.9c-0.5,0.5-0.6,1.4-0.2,2c0.7,0.9,1.4,1.8,2.2,2.6c0.9,0.9,1.9,1.7,2.9,2.5
						c0.6,0.4,1.4,0.4,2-0.2l1.8-1.8c0.3-0.3,0.7-0.3,1,0l0,0l3.2,3.2C26,22.9,26,23.4,25.7,23.7z"/>
				</g>
			</g>
		</g>
	</g>
</g>
</svg>
