<?xml version="1.0" encoding="utf-8"?>
<!-- Generator: Adobe Illustrator 23.0.1, SVG Export Plug-In . SVG Version: 6.00 Build 0)  -->
<svg version="1.1" id="Layer_1" xmlns="http://www.w3.org/2000/svg" xmlns:xlink="http://www.w3.org/1999/xlink" x="0px" y="0px"
	 viewBox="0 0 34 34" style="enable-background:new 0 0 34 34;" xml:space="preserve">
<style type="text/css">
	.st0{fill:#1C5FB8;}
</style>
<g>
	<g>
		<g>
			<g>
				<g>
					<path class="st0" d="M5,5c6.6-6.6,17.4-6.6,24,0c3.2,3.2,5,7.5,5,12c0,4.5-1.8,8.8-5,12c-6.6,6.6-17.4,6.6-24,0S-1.7,11.6,5,5z
						 M23.5,11H10.4C9.7,11,9,11.6,9,12.4v9.3c0,0.8,0.6,1.4,1.4,1.4h13.1c0.8,0,1.4-0.6,1.4-1.4v-9.3C24.9,11.6,24.3,11,23.5,11z
						 M15.1,17.6l1.6,1.6c0.2,0.2,0.5,0.2,0.7,0l1.5-1.5l4.5,4.5H10.6C10.6,22.1,15.1,17.6,15.1,17.6z M10,12.5l4.5,4.4L10,21.5
						V12.5z M24,12.5v8.9L19.5,17C19.5,17,24,12.5,24,12.5z M23.3,11.9L17,18.2l-6.4-6.3C10.6,11.9,23.3,11.9,23.3,11.9z"/>
				</g>
			</g>
		</g>
	</g>
</g>
</svg>
