<svg xmlns="http://www.w3.org/2000/svg" width="77" height="77" viewBox="0 0 77 77">
    <g fill="none" fill-rule="evenodd">
        <g>
            <g transform="translate(-199 -1350) translate(199 1350)">
                <circle cx="38.5" cy="38.5" r="38.5" fill="#FCF3E0"/>
                <g fill="#0F5569" fill-rule="nonzero">
                    <path d="M27.673.083L8.632 7.7H3.464C1.555 7.699 0 9.254 0 11.163v4.235c0 1.814 1.424 3.08 3.464 3.08h1.31l1.397 9.786c.082.57.569.992 1.143.992h4.62c.329 0 .641-.14.861-.385.22-.245.324-.572.287-.9l-.909-8.077 15.498 6.199c.14.055.285.083.43.083.226 0 .454-.068.648-.199.317-.215.507-.572.507-.956V1.155c0-.383-.19-.74-.507-.956-.319-.216-.722-.259-1.076-.116zM32.743 9.75l3.806-3.107c.492-.403.572-1.136.178-1.64-.396-.5-1.113-.58-1.606-.182L31.315 7.93c-.491.403-.572 1.136-.178 1.64.226.286.557.437.892.437.252 0 .503-.084.714-.255zM32.743 17.981c-.49-.4-1.208-.319-1.606.182-.394.502-.313 1.237.178 1.64l3.806 3.107c.212.171.463.255.714.255.335 0 .667-.15.892-.436.394-.502.314-1.237-.178-1.64l-3.806-3.108zM35.835 12.725H32.03c-.63 0-1.142.511-1.142 1.142 0 .63.512 1.141 1.142 1.141h3.806c.63 0 1.142-.511 1.142-1.141s-.511-1.142-1.142-1.142z" transform="translate(20.011 23.927)"/>
                </g>
            </g>
        </g>
    </g>
</svg>
